<?xml version="1.0" encoding="UTF-8"?>
<svg version="1.1" xmlns="http://www.w3.org/2000/svg" width="1400" height="675">
<path d="M0 0 C1.87214172 -0.01418472 1.87214172 -0.01418472 3.78210449 -0.02865601 C5.14054686 -0.02328613 6.49898632 -0.01713314 7.85742188 -0.01025391 C9.25459953 -0.01227567 10.65177615 -0.01518797 12.0489502 -0.01895142 C14.97430488 -0.02336998 17.89938438 -0.01695912 20.82470703 -0.00292969 C24.57081253 0.01416234 28.31627319 0.0043186 32.06235504 -0.01364708 C34.9466028 -0.0244978 37.83069817 -0.02103276 40.71495056 -0.0132637 C42.09602434 -0.01126524 43.47711204 -0.01370857 44.85816956 -0.02070236 C46.78955819 -0.02833708 48.72099546 -0.01463332 50.65234375 0 C52.2997052 0.00358017 52.2997052 0.00358017 53.98034668 0.00723267 C57.36277889 0.46001546 58.49788673 0.89430976 60.82617188 3.38818359 C61.22369108 6.22977312 61.36031387 8.68723563 61.32496643 11.53103638 C61.33035098 12.37098392 61.33573554 13.21093147 61.34128326 14.07633197 C61.35459908 16.9020928 61.33938251 19.72699185 61.32446289 22.55273438 C61.3282846 24.57483317 61.33390238 26.59692926 61.34118652 28.61901855 C61.35316282 32.98159652 61.35262728 37.34393391 61.34259224 41.70651627 C61.32704518 48.61732904 61.3407037 55.52789452 61.35862732 62.43869019 C61.38949679 75.88233957 61.39094875 89.32591401 61.38897705 102.76959229 C61.38758626 119.83037386 61.39810051 136.89109653 61.43755478 153.95183551 C61.45241528 160.80726005 61.45227121 167.66246548 61.44007695 174.51789308 C61.43533014 178.80820477 61.442942 183.09843458 61.45362091 187.38873291 C61.45600586 189.36181578 61.45336785 191.33491296 61.44501305 193.30797958 C61.36199197 214.18327721 63.08286275 240.51014804 78.51367188 256.45068359 C80.86842743 258.49519908 80.86842743 258.49519908 83.82617188 260.38818359 C83.82617188 261.04818359 83.82617188 261.70818359 83.82617188 262.38818359 C84.91671875 262.80583984 84.91671875 262.80583984 86.02929688 263.23193359 C88.82617187 264.38818359 88.82617187 264.38818359 91.12304688 265.60693359 C107.26581405 274.03818779 130.91513135 273.54299255 148.05664062 268.42333984 C159.28377979 264.01850453 170.0545312 257.71104995 177.82617188 248.38818359 C179.02693359 246.963125 179.02693359 246.963125 180.25195312 245.50927734 C193.30998744 229.11017877 199.00826878 207.80826511 198.95747375 187.08171082 C198.95958947 186.29688475 198.96170518 185.51205869 198.96388501 184.70345002 C198.96982645 182.10119506 198.96888912 179.49898939 198.96801758 176.89672852 C198.97105275 175.02014077 198.97457519 173.14355377 198.97854614 171.26696777 C198.98640435 167.24012865 198.99156822 163.21329827 198.99483681 159.18645287 C199.00076632 152.82067044 199.0173221 146.45494331 199.03617859 140.08918762 C199.04251479 137.90717986 199.04884043 135.72517207 199.05515575 133.54316425 C199.05832157 132.45094425 199.06148738 131.35872424 199.06474912 130.23340666 C199.1067995 115.42213409 199.13983709 100.61088893 199.15209961 85.79956055 C199.16046802 75.79423733 199.18290539 65.78905281 199.22145528 55.78379899 C199.24124169 50.49195588 199.25361155 45.20032021 199.24862099 39.90843773 C199.24399002 34.93835028 199.25769458 29.96865744 199.28563309 24.9986496 C199.29256856 23.17330788 199.29264624 21.34792556 199.28543282 19.52258492 C199.27659137 17.03449535 199.29215976 14.54772059 199.31391907 12.05973816 C199.30125526 10.97166714 199.30125526 10.97166714 199.28833562 9.86161488 C199.34330507 6.47265645 199.60810728 4.67654166 201.67753029 1.94003677 C204.59167086 -0.1646969 206.53038176 -0.11299418 210.10766602 -0.11352539 C212.0146804 -0.12759682 212.0146804 -0.12759682 213.96022034 -0.14195251 C215.3439298 -0.1314753 216.72763275 -0.12010643 218.11132812 -0.10791016 C219.53332086 -0.10806516 220.95531402 -0.10955444 222.37730408 -0.11231995 C225.35402151 -0.11370316 228.33025663 -0.10115833 231.30688477 -0.07836914 C235.12261491 -0.04995814 238.93754543 -0.0527295 242.753335 -0.06545925 C245.68817478 -0.07241276 248.62282963 -0.06463149 251.5576458 -0.05220222 C252.96465788 -0.0476863 254.37168981 -0.04735217 255.77870369 -0.05126762 C257.74385982 -0.05417692 259.70901227 -0.03552325 261.67407227 -0.01586914 C262.79229874 -0.01046616 263.91052521 -0.00506317 265.06263733 0.00050354 C267.82617188 0.38818359 267.82617188 0.38818359 269.47512299 1.53488809 C271.41297613 4.19312981 271.20343297 6.15656452 271.20648861 9.42859173 C271.21492855 10.69962047 271.22336849 11.97064922 271.23206419 13.28019398 C271.22626827 14.69881598 271.2201872 16.11743683 271.21385193 17.53605652 C271.21802218 19.0369236 271.223498 20.53778753 271.23017174 22.03864557 C271.24468768 26.17401606 271.24036242 30.30918831 271.23300493 34.44456995 C271.22829018 38.90091687 271.24076864 43.35721985 271.25102234 47.81355286 C271.26825412 56.55156411 271.26904061 65.28950358 271.26380944 74.02752741 C271.25977151 81.13449685 271.26120683 88.24144505 271.26655769 95.34841347 C271.26730612 96.35916964 271.26805454 97.36992582 271.26882564 98.41131097 C271.27035712 100.46467668 271.27189547 102.51804238 271.27344061 104.57140807 C271.28718365 123.84984275 271.28171727 143.1282369 271.27025539 162.40667067 C271.2603403 180.02346253 271.2732306 197.6401491 271.29718959 215.25692471 C271.32161151 233.35086644 271.33117967 251.44475921 271.32453686 269.53871709 C271.32104903 279.69467272 271.3232468 289.85054756 271.34078789 300.00649071 C271.35554935 308.66065543 271.35609493 317.3146826 271.33871698 325.96884473 C271.33023337 330.37993927 271.32799189 334.79078854 271.34336853 339.20186996 C271.35730707 343.25085569 271.35233623 347.29938818 271.33312929 351.3483483 C271.32939652 352.80277197 271.33221142 354.25723275 271.34274095 355.71162309 C271.44582713 371.05841362 267.61946474 384.24133618 261.82617188 398.38818359 C261.5090625 399.27119141 261.19195313 400.15419922 260.86523438 401.06396484 C258.47545525 407.63075107 254.99053909 412.81045539 250.82617188 418.38818359 C249.79169922 419.8403125 249.79169922 419.8403125 248.73632812 421.32177734 C242.40054974 430.20602524 242.40054974 430.20602524 238.82617188 433.38818359 C238.16617188 433.38818359 237.50617188 433.38818359 236.82617188 433.38818359 C236.43365234 434.26796875 236.43365234 434.26796875 236.03320312 435.16552734 C233.07333155 440.61590574 228.1186604 444.36390444 222.82617188 447.38818359 C221.55152814 448.44610938 220.28129051 449.50935034 219.01367188 450.57568359 C212.55359641 455.64534546 205.27870343 459.03272077 197.82617188 462.38818359 C196.85284912 462.82807617 196.85284912 462.82807617 195.85986328 463.27685547 C174.78954535 472.55572418 152.25204309 471.846491 129.67358708 471.79116011 C125.53868759 471.7834595 121.40380611 471.79063551 117.26890564 471.7953186 C110.34760886 471.80073719 103.42640896 471.79367844 96.50512695 471.77929688 C88.51244732 471.7628806 80.51999626 471.76833908 72.52732188 471.78477609 C65.63091168 471.79838736 58.7345702 471.8003153 51.83815092 471.79246008 C47.73303084 471.787794 43.62801843 471.78713131 39.52290535 471.79706955 C35.67718045 471.80573515 31.83175206 471.79972516 27.98605919 471.78238678 C26.5771598 471.7784239 25.1682354 471.77955262 23.75934601 471.78617477 C21.83538714 471.79438486 19.91137363 471.7822589 17.98744202 471.76913452 C16.91187577 471.76800344 15.83630953 471.76687237 14.72815037 471.76570702 C11.40237644 471.33305131 9.51329772 470.3641916 6.82617188 468.38818359 C5.52367659 465.78319303 5.67041619 463.83356897 5.63330078 460.91625977 C5.61723785 459.77134567 5.60117493 458.62643158 5.58462524 457.44682312 C5.5402624 452.20846309 5.49867087 446.97019072 5.47607422 441.73168945 C5.46273919 438.96605317 5.43489634 436.20115552 5.39404297 433.43579102 C5.33523711 429.45509827 5.31741305 425.47476464 5.30273438 421.49365234 C5.280065 420.25705368 5.25739563 419.02045502 5.23403931 417.74638367 C5.25513253 409.20284604 5.25513253 409.20284604 8.10888672 405.1315918 C12.21817596 402.49507477 15.50005834 402.26312864 20.33137512 402.25688171 C21.45110718 402.25287354 22.57083923 402.24886536 23.72450256 402.24473572 C24.94890549 402.24526443 26.17330841 402.24579315 27.43481445 402.24633789 C29.42015935 402.24100398 31.40550425 402.23566408 33.39084852 402.23010123 C35.52458706 402.22490671 37.65831944 402.22199118 39.79206276 402.21951866 C44.25339726 402.2135898 48.71465274 402.19702799 53.1759491 402.17817688 C54.70652861 402.17183928 56.23710818 402.16551366 57.7676878 402.15919971 C58.53431126 402.1560339 59.30093472 402.15286809 60.0907892 402.14960635 C70.47253977 402.10764326 80.85425433 402.07460903 91.23608398 402.06225586 C98.24351262 402.05383231 105.25074594 402.03117962 112.25807685 401.99290019 C115.95914065 401.97327355 119.65991339 401.96068956 123.36103249 401.96573448 C148.58030099 401.99357137 167.65412803 400.20818098 186.54101562 381.70849609 C199.29209419 367.57069545 202.00729239 353.22790368 201.92382812 334.79443359 C201.92241318 333.60716675 201.92099823 332.4198999 201.91954041 331.19665527 C201.91396998 327.42713843 201.90142292 323.6576823 201.88867188 319.88818359 C201.88365305 317.32308029 201.87909082 314.75797605 201.875 312.19287109 C201.86401024 305.92462142 201.84730169 299.65640685 201.82617188 293.38818359 C198.36652406 294.69830847 196.12669095 295.75168253 193.63867188 298.51318359 C192.15820312 300.14599609 192.15820312 300.14599609 190.82617188 301.38818359 C190.16617188 301.38818359 189.50617188 301.38818359 188.82617188 301.38818359 C188.49617187 302.37818359 188.16617188 303.36818359 187.82617188 304.38818359 C186.07617188 305.56396484 186.07617188 305.56396484 183.82617188 306.70068359 C180.58528498 308.35006353 177.62966777 310.19852142 174.64648438 312.26708984 C169.89038976 315.46747555 164.97969809 317.80509572 159.70117188 320.01318359 C158.78537354 320.39925781 157.8695752 320.78533203 156.92602539 321.18310547 C139.8752491 328.21041745 123.59007067 329.60751103 105.32617188 329.57568359 C104.5773877 329.57441467 103.82860352 329.57314575 103.05712891 329.57183838 C74.4038874 329.4794135 49.94971961 325.10893271 25.82617188 308.38818359 C25.03339844 307.84419922 24.240625 307.30021484 23.42382812 306.73974609 C17.47217155 302.40571926 13.14932044 297.31522949 8.82617188 291.38818359 C8.31441406 290.71400391 7.80265625 290.03982422 7.27539062 289.34521484 C-5.23834764 271.90693268 -10.32537369 251.53890646 -10.32099915 230.3286438 C-10.32467583 229.35526876 -10.32835252 228.38189373 -10.33214062 227.37902248 C-10.3430966 224.13874387 -10.34700728 220.89849741 -10.35083008 217.65820312 C-10.35710026 215.32679647 -10.36374755 212.9953908 -10.3707428 210.66398621 C-10.39169906 203.03299648 -10.40212925 195.40200671 -10.41210938 187.77099609 C-10.41615845 185.14198674 -10.42027542 182.51297749 -10.42445946 179.88396835 C-10.44130746 168.95649827 -10.45594793 158.02903022 -10.4632082 147.10154915 C-10.46511788 144.27326583 -10.46703826 141.44498251 -10.46899414 138.61669922 C-10.46947788 137.91379996 -10.46996162 137.21090071 -10.47046002 136.48670147 C-10.47877994 125.07259799 -10.50415995 113.65859862 -10.53657482 102.24454071 C-10.56960536 90.51810051 -10.58765266 78.79171341 -10.59085244 67.06522644 C-10.59320831 60.48398787 -10.6022404 53.90291468 -10.62731361 47.32172012 C-10.65048471 41.14106833 -10.65487195 34.96069218 -10.64455223 28.78000832 C-10.64405427 26.50754571 -10.65045051 24.23507001 -10.66410828 21.96264839 C-10.68166225 18.87003647 -10.67480297 15.77843205 -10.66157532 12.68582153 C-10.67254456 11.77854439 -10.68351381 10.87126724 -10.69481546 9.93649685 C-10.63207384 3.89705514 -10.63207384 3.89705514 -8.321208 1.33089066 C-5.44261303 0.06717768 -3.14430277 0.00683344 0 0 Z " fill="#000000" transform="translate(389.173828125,170.61181640625)"/>
<path d="M0 0 C1.83738235 -0.01925285 1.83738235 -0.01925285 3.71188354 -0.03889465 C5.0502685 -0.04706174 6.38865804 -0.05450553 7.72705078 -0.0612793 C8.40207767 -0.06535482 9.07710457 -0.06943035 9.77258682 -0.07362938 C13.34448183 -0.0944667 16.91633867 -0.10877932 20.48828125 -0.11816406 C24.17271111 -0.12923299 27.85653777 -0.16364406 31.54075432 -0.20333576 C34.37868354 -0.22950578 37.21646894 -0.23785609 40.05450821 -0.24144554 C41.41246751 -0.24630939 42.77042047 -0.25791787 44.12826157 -0.27648354 C46.0306717 -0.30088151 47.93337629 -0.29748951 49.8359375 -0.29296875 C51.457845 -0.30176811 51.457845 -0.30176811 53.11251831 -0.31074524 C56.90286128 0.31917871 58.37625891 1.42224504 61.04736328 4.17700195 C61.55160962 6.8421949 61.72310488 8.87817305 61.6793623 11.54248714 C61.6869291 12.29017733 61.6944959 13.03786752 61.702292 13.80821499 C61.72163079 16.32811912 61.70517012 18.84653116 61.68901062 21.36643982 C61.69548437 23.18537431 61.70413592 25.00430214 61.71478492 26.82321697 C61.73767175 31.83276934 61.72918774 36.84185919 61.71564567 41.85142767 C61.70641798 47.2496346 61.7258626 52.64774775 61.74162292 58.04592896 C61.7677571 68.6256763 61.76660851 79.20525398 61.75558474 89.78502136 C61.74703798 98.38139156 61.74784788 106.97771255 61.75538063 115.57408333 C61.75643552 116.79603206 61.75749041 118.01798079 61.75857726 119.27695828 C61.76074812 121.7590805 61.76293489 124.24120271 61.76513741 126.7233249 C61.78458361 150.01736723 61.7725538 173.31131423 61.75035147 196.60534877 C61.73210046 216.60498774 61.74300128 236.60438108 61.7746582 256.60400391 C61.81139017 279.8112672 61.82845328 303.01841516 61.81524593 326.22570759 C61.81390478 328.69917331 61.8125958 331.17263906 61.81131935 333.64610481 C61.81037335 335.47173849 61.81037335 335.47173849 61.80940824 337.33425365 C61.80637649 345.9226077 61.81766123 354.51087503 61.83456993 363.09921074 C61.85485878 373.56237387 61.85408055 384.02527641 61.82593753 394.48842578 C61.81212976 399.82985815 61.80805646 405.17083506 61.82988739 410.5122509 C61.84959423 415.39839259 61.841793 420.28367517 61.81169305 425.16975678 C61.80566571 426.94090765 61.80984813 428.71212753 61.82505628 430.48322337 C61.84418358 432.88508605 61.82661433 435.28395357 61.79961681 437.68567562 C61.81394966 438.3789135 61.8282825 439.07215138 61.84304968 439.78639647 C61.78038632 442.51257499 61.53140809 444.59302266 59.76197878 446.72776318 C56.26836371 449.77127012 53.79331412 450.79997406 49.19726562 450.77636719 C48.06944672 450.78244492 46.94162781 450.78852264 45.77963257 450.79478455 C44.57634308 450.77525223 43.37305359 450.75571991 42.13330078 450.7355957 C40.8861026 450.73326431 39.63890442 450.73093292 38.35391235 450.72853088 C35.05059562 450.71631839 31.74850076 450.68140327 28.44549561 450.63690186 C25.75051344 450.6070633 23.05577276 450.60329073 20.3606472 450.60032558 C17.13894409 450.59482653 13.91741698 450.57145283 10.69580078 450.5480957 C9.48846283 450.542733 8.28112488 450.5373703 7.03720093 450.53184509 C5.91568634 450.5158577 4.79417175 450.4998703 3.63867188 450.48339844 C2.65305267 450.47275864 1.66743347 450.46211884 0.65194702 450.45115662 C-2.0627605 450.16541049 -3.70221213 449.71186344 -5.95263672 448.17700195 C-6.88078529 445.39255624 -7.12560914 443.47260323 -7.23388672 440.5793457 C-7.28996094 439.25386719 -7.28996094 439.25386719 -7.34716797 437.90161133 C-7.41762808 436.03963774 -7.48793996 434.17765854 -7.55810547 432.31567383 C-7.59548828 431.43331055 -7.63287109 430.55094727 -7.67138672 429.6418457 C-7.70167969 428.83352295 -7.73197266 428.0252002 -7.76318359 427.19238281 C-7.83663616 425.10771949 -7.83663616 425.10771949 -8.95263672 423.17700195 C-13.50597793 423.64831271 -15.29256705 425.14215977 -18.32763672 428.48950195 C-22.0570063 432.39118564 -25.1898572 434.71056256 -29.95263672 437.17700195 C-31.33070165 438.10625541 -32.69982707 439.04884058 -34.06201172 440.0012207 C-38.73928376 443.14269336 -43.55058032 445.54333962 -48.70263672 447.80200195 C-49.57952148 448.18880127 -50.45640625 448.57560059 -51.35986328 448.97412109 C-69.40695463 456.80459407 -86.83184762 458.56196228 -106.26513672 458.42700195 C-107.07623901 458.42356781 -107.88734131 458.42013367 -108.72302246 458.41659546 C-130.22482242 458.30990714 -149.9833415 456.85019992 -169.61279297 447.28637695 C-171.70864689 446.29268327 -173.75391231 445.52753677 -175.95263672 444.80200195 C-181.44163409 442.80803964 -186.13824351 439.42235893 -190.95263672 436.17700195 C-192.27908203 435.30301758 -192.27908203 435.30301758 -193.63232422 434.41137695 C-198.40466121 431.1911374 -202.4887054 427.83609244 -206.44091797 423.65356445 C-207.98421898 422.01446076 -207.98421898 422.01446076 -210.45263672 420.80200195 C-213.81473514 418.61663798 -215.7394698 415.78057361 -218.11669922 412.58325195 C-219.88020405 410.27193498 -221.74506428 408.13704978 -223.70263672 405.98950195 C-226.45562956 402.88324897 -228.17720708 399.94978993 -229.95263672 396.17700195 C-231.06450327 394.43936127 -232.1912249 392.71119024 -233.32763672 390.98950195 C-236.80016861 385.58050574 -239.49073736 380.10550102 -241.95263672 374.17700195 C-242.45923828 372.96399414 -242.96583984 371.75098633 -243.48779297 370.5012207 C-249.9534494 354.80940198 -253.13996036 339.16201041 -255.57763672 322.42700195 C-255.70074219 321.5887085 -255.82384766 320.75041504 -255.95068359 319.88671875 C-260.85299183 285.12705117 -260.22079581 242.73638486 -245.81347656 210.15649414 C-244.82874261 207.89210874 -243.91530743 205.60447616 -243.00341797 203.30981445 C-237.03434205 188.44292378 -237.03434205 188.44292378 -232.44482422 182.21606445 C-230.64043151 179.75037598 -229.09931049 177.16412848 -227.51513672 174.55200195 C-224.92615426 170.46084066 -222.22122989 167.14045034 -218.69091797 163.8449707 C-216.86466769 162.09259122 -215.26632622 160.24048077 -213.64013672 158.30200195 C-205.91223858 149.42605687 -197.16897121 142.94529359 -186.95263672 137.17700195 C-185.74148193 136.47136108 -185.74148193 136.47136108 -184.50585938 135.75146484 C-177.93717227 132.01816111 -171.38771365 129.2980751 -164.20263672 126.98950195 C-163.15785156 126.64781982 -162.11306641 126.3061377 -161.03662109 125.95410156 C-145.58421901 121.0112895 -130.51762785 118.97785024 -114.3293457 118.93676758 C-112.051698 118.92715624 -109.77499184 118.89610896 -107.49755859 118.86450195 C-74.38910462 118.62526251 -42.71101797 131.09031003 -18.37060547 153.47387695 C-17.57267578 154.0359082 -16.77474609 154.59793945 -15.95263672 155.17700195 C-13.82882642 154.838679 -13.82882642 154.838679 -11.95263672 154.17700195 C-11.94932657 153.40670749 -11.94601643 152.63641302 -11.94260597 151.8427763 C-11.86144784 133.11502664 -11.76937913 114.38735988 -11.66510963 95.65972424 C-11.61495021 86.60324486 -11.56850772 77.54677469 -11.53076172 68.49023438 C-11.4978597 60.59817691 -11.45803847 52.70619018 -11.40984666 44.81421071 C-11.38456381 40.63400367 -11.36278785 36.45384365 -11.34929276 32.27358055 C-11.33648854 28.34115096 -11.31445205 24.40888252 -11.28525352 20.47654152 C-11.27616487 19.03135543 -11.27048452 17.58614338 -11.26842308 16.14093018 C-11.26510979 14.17136549 -11.24847304 12.20183651 -11.23110962 10.23234558 C-11.22557886 9.12895938 -11.2200481 8.02557318 -11.21434975 6.88875103 C-10.95263672 4.17700195 -10.95263672 4.17700195 -8.95263672 1.17700195 C-5.73915803 0.10584239 -3.37969284 0.03081504 0 0 Z M-151.95263672 198.17700195 C-153.23485228 199.25088849 -154.52564222 200.31468323 -155.82763672 201.36450195 C-158.88235587 203.97166923 -160.83636962 206.73806792 -162.95263672 210.17700195 C-163.72027344 211.18633789 -163.72027344 211.18633789 -164.50341797 212.21606445 C-170.09392122 219.62874947 -173.6167611 227.57599584 -176.95263672 236.17700195 C-177.42958984 237.40032227 -177.90654297 238.62364258 -178.39794922 239.8840332 C-189.56691534 271.81925071 -189.90073237 316.03393524 -175.62451172 347.0637207 C-174.82924162 348.66623785 -174.01343828 350.25900711 -173.16357422 351.83325195 C-171.95263672 354.17700195 -171.95263672 354.17700195 -170.65966797 357.45825195 C-168.8142227 361.81893608 -166.12353487 365.4277267 -163.26513672 369.17700195 C-162.73202881 369.88179687 -162.1989209 370.5865918 -161.6496582 371.31274414 C-157.86182872 376.22304157 -153.93196908 380.45053386 -148.95263672 384.17700195 C-148.19466797 384.80993164 -147.43669922 385.44286133 -146.65576172 386.0949707 C-143.62790953 388.42711697 -140.45668774 390.35831072 -137.14013672 392.23950195 C-136.56199219 392.57788086 -135.98384766 392.91625977 -135.38818359 393.26489258 C-128.48173676 397.21034342 -121.80822558 399.55697039 -113.89013672 400.36450195 C-113.15480713 400.44345703 -112.41947754 400.52241211 -111.66186523 400.60375977 C-87.27888391 403.02502519 -66.52345878 399.83629825 -46.74169922 384.45825195 C-39.13938685 378.05017256 -33.15619513 370.61288842 -27.95263672 362.17700195 C-27.25009766 361.09290039 -26.54755859 360.00879883 -25.82373047 358.8918457 C-18.68515638 347.4380951 -15.07485872 335.23640305 -11.95263672 322.17700195 C-11.75911621 321.37456055 -11.5655957 320.57211914 -11.36621094 319.74536133 C-4.39646752 289.20363945 -6.94797425 247.86365742 -22.89013672 220.36450195 C-24.20354041 218.27580754 -25.55652156 216.21134118 -26.95263672 214.17700195 C-28.01417969 212.62045898 -28.01417969 212.62045898 -29.09716797 211.0324707 C-32.10448894 206.775354 -35.0561299 202.67097707 -38.95263672 199.17700195 C-39.61263672 199.17700195 -40.27263672 199.17700195 -40.95263672 199.17700195 C-41.28263672 198.18700195 -41.61263672 197.19700195 -41.95263672 196.17700195 C-58.48584202 180.49477046 -81.02106938 176.28711998 -103.03466797 176.8371582 C-122.06403306 177.69230799 -138.43190804 184.7562417 -151.95263672 198.17700195 Z " fill="#000000" transform="translate(1284.95263671875,41.822998046875)"/>
<path d="M0 0 C1.82027759 -0.00107614 3.64055483 -0.00301972 5.46083069 -0.00575256 C10.34626802 -0.01054629 15.23161218 -0.00301809 20.11703825 0.00720048 C25.24718316 0.01605646 30.37732581 0.01422219 35.50747681 0.01383972 C44.10281921 0.01477199 52.69812599 0.02340276 61.29345703 0.03710938 C71.23270855 0.05290037 81.17192132 0.05810483 91.11118448 0.05737382 C101.71436806 0.05669934 112.31753672 0.06362677 122.92071581 0.07282043 C125.97262027 0.07495217 129.02452232 0.07566161 132.07642746 0.07605934 C136.85851655 0.07706156 141.64057297 0.0831482 146.42265129 0.09322548 C148.17909101 0.09615187 149.93553449 0.09737557 151.69197655 0.09679794 C154.08320941 0.09630899 156.47435003 0.10194542 158.86557007 0.10920715 C159.56506094 0.10765855 160.26455182 0.10610995 160.98523939 0.10451442 C163.98726151 0.11964115 166.26086487 0.28479024 169.13525391 1.24291992 C171.40755928 4.65137798 171.40010933 5.91283952 171.44165039 9.92016602 C171.45763779 11.08502533 171.47362518 12.24988464 171.49009705 13.45004272 C171.4981411 15.3391185 171.4981411 15.3391185 171.50634766 17.26635742 C171.51537613 18.55982086 171.5244046 19.8532843 171.53370667 21.1859436 C171.55019206 23.92468764 171.55789584 26.66330951 171.56079102 29.40209961 C171.56617298 32.90514816 171.60384409 36.40704248 171.64953518 39.90976524 C171.68650155 43.25779075 171.6878216 46.60563475 171.69384766 49.95385742 C171.71337997 51.20919281 171.73291229 52.4645282 171.7530365 53.75790405 C171.74695877 54.92906769 171.74088104 56.10023132 171.73461914 57.30688477 C171.73968979 58.33486176 171.74476044 59.36283875 171.74998474 60.42196655 C170.89502905 64.34529362 169.21772884 65.71989626 166.13525391 68.24291992 C162.96943092 68.86818981 162.96943092 68.86818981 159.33291626 68.86869812 C158.66135793 68.87564267 157.9897996 68.88258721 157.29789102 68.8897422 C155.05380756 68.90696677 152.81143819 68.88871739 150.56738281 68.87060547 C148.95552748 68.87578546 147.34367798 68.88318637 145.73184204 68.89263916 C142.26192407 68.9082047 138.79248918 68.90802884 135.32255936 68.8956356 C129.82348173 68.87606911 124.32483176 68.89131069 118.82577515 68.91108704 C110.11372864 68.93825112 101.40185631 68.94172761 92.68977582 68.935314 C77.12738121 68.92439891 61.5650414 68.9491775 46.00270021 68.98906165 C40.55003222 69.00205016 35.09752452 69.00343987 29.64484906 68.99492872 C26.23089838 68.99127007 22.81698755 68.99564312 19.40304184 69.00177002 C17.83548074 69.00284371 16.26791261 69.00056283 14.70036316 68.99442482 C-4.52953132 68.7404642 -4.52953132 68.7404642 -22.48974609 74.61791992 C-23.59576172 75.2031543 -24.70177734 75.78838867 -25.84130859 76.39135742 C-28.73137871 78.16124532 -31.26593102 80.07434346 -33.86474609 82.24291992 C-34.49896484 82.70311523 -35.13318359 83.16331055 -35.78662109 83.63745117 C-40.55555082 87.33642871 -43.60593172 91.56429662 -46.67724609 96.68041992 C-47.05010742 97.30086182 -47.42296875 97.92130371 -47.80712891 98.56054688 C-52.9490816 107.46805921 -54.98697978 115.70556461 -54.99414062 126.06445312 C-54.99886887 128.03603142 -54.99886887 128.03603142 -55.00369263 130.04743958 C-55.00190346 131.46286045 -54.99985266 132.87828102 -54.99755859 134.29370117 C-54.99823294 135.75864172 -54.99920405 137.22358217 -55.00045776 138.68852234 C-55.00192627 141.74548416 -54.99980594 144.80241661 -54.99511719 147.859375 C-54.98939505 151.78138953 -54.99271987 155.703336 -54.99868965 159.62534809 C-55.00229663 162.64414487 -55.00115649 165.66292539 -54.99856186 168.68172264 C-54.99789428 170.12864375 -54.99871514 171.57556634 -55.00104141 173.02248573 C-55.00357285 175.03777667 -54.99903234 177.05307279 -54.99414062 179.06835938 C-54.99334503 180.21528763 -54.99254944 181.36221588 -54.99172974 182.54389954 C-55.04862732 185.21239488 -55.04862732 185.21239488 -53.86474609 187.24291992 C-52.93652951 187.24623007 -52.00831293 187.24954021 -51.05196857 187.25295067 C-28.47639076 187.33391035 -5.90088113 187.42621531 16.67460155 187.53044701 C27.59189131 187.58058925 38.5091735 187.62703201 49.42651367 187.66479492 C58.94099895 187.69771473 68.45542577 187.73754594 77.96984655 187.78570998 C83.00860903 187.81097502 88.04733273 187.83275634 93.08614159 187.84626389 C97.82784788 187.85908412 102.56942116 187.88113824 107.31105423 187.91030312 C109.05211386 187.91937916 110.7931949 187.92506919 112.53427696 187.92713356 C114.91050977 187.93045589 117.28636539 187.94593244 119.66252136 187.96444702 C120.3522188 187.96251229 121.04191623 187.96057755 121.75251359 187.95858419 C126.59343371 188.01501305 130.42278196 188.52421623 133.92150879 192.03567505 C135.39985113 194.72410074 135.52753304 196.49773499 135.55517578 199.55883789 C135.57108765 200.62029022 135.58699951 201.68174255 135.60339355 202.77536011 C135.60369568 204.48793503 135.60369568 204.48793503 135.60400391 206.23510742 C135.61161743 207.41380402 135.61923096 208.59250061 135.6270752 209.80691528 C135.63787985 212.30004763 135.64072784 214.79322525 135.63623047 217.28637695 C135.63525927 221.09688061 135.67685797 224.90536384 135.72119141 228.71557617 C135.72639921 231.13874906 135.72908659 233.56192894 135.72900391 235.98510742 C135.74539917 237.12277557 135.76179443 238.26044373 135.77868652 239.43258667 C135.7693811 240.50034332 135.76007568 241.56809998 135.75048828 242.66821289 C135.75254272 243.6021286 135.75459717 244.53604431 135.75671387 245.4982605 C134.90670866 249.2522832 133.05770163 251.81461811 130.13525391 254.24291992 C127.34956069 254.84502761 125.42181189 255.04499972 122.64474487 254.98222351 C121.89938292 254.98931691 121.15402096 254.99641032 120.38607228 255.00371867 C117.89264999 255.02026637 115.40151858 254.99415883 112.90820312 254.96826172 C111.11924586 254.97152101 109.33029177 254.97745734 107.54135132 254.98587036 C103.69155028 254.99827608 99.84240377 254.99183558 95.99264145 254.9708004 C89.90876616 254.93776091 83.82540476 254.94702852 77.7414856 254.96211243 C68.1226157 254.98099518 58.50400973 254.97196155 48.88515198 254.95079118 C31.6494842 254.91309793 14.41385239 254.90888371 -2.82183444 254.93564349 C-8.87334458 254.94375052 -14.92453669 254.93509362 -20.97600961 254.91308057 C-24.73463508 254.90202175 -28.49319059 254.90297406 -32.25182724 254.90695572 C-33.99859392 254.9061671 -35.74536692 254.90017444 -37.49209595 254.8886776 C-39.87102637 254.87364499 -42.24925538 254.876832 -44.62820435 254.88456726 C-45.32420781 254.87562697 -46.02021128 254.86668667 -46.73730576 254.85747546 C-49.39875074 254.88153101 -51.43848754 255.0085557 -53.79379177 256.30354214 C-55.45046382 259.30358882 -55.27209538 262.29343954 -55.23655701 265.63131714 C-55.24038157 266.38989332 -55.24420613 267.14846951 -55.24814659 267.93003285 C-55.25745497 270.47966374 -55.24542575 273.02875491 -55.23364258 275.57836914 C-55.23610968 277.40319037 -55.23994718 279.22801018 -55.24505615 281.05282593 C-55.25340501 284.98650701 -55.25257737 288.9200434 -55.24487114 292.85372543 C-55.23330939 299.07232133 -55.24543304 305.29073022 -55.26148987 311.50930786 C-55.29772106 326.95683663 -55.30391309 342.40436134 -55.3013916 357.85192871 C-55.29968156 369.85280368 -55.3067709 381.85352649 -55.34137017 393.85435879 C-55.35818846 400.0374508 -55.35634835 406.2201722 -55.34054744 412.40326285 C-55.33475772 416.2494423 -55.34547778 420.09544535 -55.36079407 423.94159317 C-55.36452602 425.72620814 -55.36139574 427.51085253 -55.35092354 429.29544067 C-55.33758341 431.73092619 -55.34873506 434.16512212 -55.36595154 436.60055542 C-55.35614476 437.30766124 -55.34633798 438.01476705 -55.33623403 438.74330032 C-55.40579422 443.49794238 -56.50764812 445.90020885 -59.86474609 449.24291992 C-62.53680118 450.57894747 -64.61990262 450.39962987 -67.61206055 450.43579102 C-69.41952507 450.45988541 -69.41952507 450.45988541 -71.26350403 450.48446655 C-76.77666071 450.52881472 -82.28968592 450.5704208 -87.80297852 450.59301758 C-90.71410566 450.60635421 -93.62453137 450.63420026 -96.53540039 450.67504883 C-100.05207992 450.72439804 -103.5681235 450.74914105 -107.08513451 450.75624466 C-109.07328778 450.76620838 -111.06127151 450.80044703 -113.04914856 450.83505249 C-114.87079781 450.83077744 -114.87079781 450.83077744 -116.72924805 450.82641602 C-117.79577103 450.83450287 -118.86229401 450.84258972 -119.96113586 450.85092163 C-122.98301967 450.21815402 -124.68998972 449.4016302 -126.81184059 447.144153 C-129.29902106 442.65304741 -128.53898987 436.98715472 -128.49293518 432.00259399 C-128.49798071 430.62460353 -128.50520959 429.24661962 -128.51443332 427.86865079 C-128.53338651 424.08180108 -128.52110455 420.29559595 -128.50371039 416.50876236 C-128.49035325 412.42381107 -128.50576863 408.33895515 -128.51753235 404.25401306 C-128.53593459 396.24646186 -128.5273756 388.23915434 -128.50944412 380.23161067 C-128.49541452 373.71398409 -128.49152614 367.19642365 -128.4948864 360.67878342 C-128.49536384 359.75080476 -128.49584128 358.82282609 -128.49633319 357.86672687 C-128.49735957 355.98127734 -128.49841493 354.09582783 -128.49949896 352.21037833 C-128.50807347 335.52260921 -128.49137629 318.83495736 -128.46166992 302.1472168 C-128.43291435 285.99319512 -128.42570828 269.83934294 -128.44116211 253.68530273 C-128.45798193 236.0794122 -128.46189334 218.47360224 -128.44445175 200.86770952 C-128.44260753 198.98371976 -128.4407728 197.09972998 -128.43894768 195.2157402 C-128.43803559 194.28894636 -128.4371235 193.36215252 -128.43618377 192.40727402 C-128.43060772 185.91580571 -128.4338588 179.42437704 -128.44049263 172.93291092 C-128.44828341 164.99409626 -128.44127177 157.05544754 -128.41631759 149.11666597 C-128.4039444 145.07531762 -128.39752421 141.03422583 -128.40885925 136.99286842 C-128.46863986 113.24300642 -127.82040601 90.77150927 -116.86474609 69.24291992 C-116.10291016 67.59549805 -116.10291016 67.59549805 -115.32568359 65.91479492 C-112.60062683 60.11494148 -109.52850883 55.15467719 -105.46240234 50.20385742 C-103.40159188 47.67445191 -101.65906034 44.96532775 -99.86474609 42.24291992 C-96.47235219 37.51779984 -92.29115519 33.96047347 -87.86474609 30.24291992 C-86.92630859 29.44112305 -85.98787109 28.63932617 -85.02099609 27.81323242 C-81.89294679 25.21030132 -78.60654259 22.89916054 -75.23974609 20.61791992 C-70.91767627 17.68528296 -70.91767627 17.68528296 -66.72021484 14.57885742 C-63.1526192 12.01018856 -58.95098848 10.78985454 -54.86474609 9.24291992 C-53.43720327 8.66332119 -52.01015797 8.0824962 -50.58349609 7.50073242 C-48.99015319 6.87209544 -47.39639868 6.24450078 -45.80224609 5.61791992 C-45.07835693 5.31660156 -44.35446777 5.0152832 -43.60864258 4.70483398 C-29.93027533 -0.55258237 -14.4391246 -0.05039425 0 0 Z " fill="#000000" transform="translate(201.86474609375,41.757080078125)"/>
<path d="M0 0 C0.84949219 0.54398438 1.69898438 1.08796875 2.57421875 1.6484375 C7.5624858 4.94412365 11.57366063 8.35091112 15.33203125 13.0078125 C17.05030771 15.1332823 17.05030771 15.1332823 19.4453125 17.34765625 C23.86565675 21.9369739 26.81826454 27.51885909 30 33 C30.42796875 33.72703125 30.8559375 34.4540625 31.296875 35.203125 C34.35792334 40.80719812 35.61158068 46.80840032 37 53 C37.26941406 54.11503906 37.53882813 55.23007813 37.81640625 56.37890625 C40.03314763 65.62068311 41.1497722 74.29880722 41.14044189 83.78070068 C41.14489858 85.21392194 41.14489858 85.21392194 41.1494453 86.67609715 C41.15808281 89.86187326 41.15963629 93.04761157 41.16113281 96.23339844 C41.16576418 98.5236265 41.17078927 100.81385379 41.17617798 103.1040802 C41.18926597 109.31235444 41.19573892 115.5206179 41.20018864 121.72890377 C41.20312282 125.60649447 41.2072281 129.48408223 41.21169281 133.36167145 C41.22379014 144.1038085 41.23417817 154.84594173 41.2375679 165.58808517 C41.23778747 166.27425138 41.23800703 166.96041759 41.23823325 167.66737671 C41.23845153 168.35513296 41.23866981 169.0428892 41.2388947 169.75148654 C41.23933816 171.145034 41.23978472 172.53858145 41.24023438 173.93212891 C41.2404558 174.62336889 41.24067723 175.31460888 41.24090537 176.02679554 C41.2448599 187.24627124 41.26233945 198.46568227 41.2855939 209.68513295 C41.30929161 221.21153739 41.32151069 232.73790008 41.32293582 244.26433015 C41.32398566 250.73324209 41.32993244 257.20206251 41.34775543 263.67095184 C41.36417567 269.74814348 41.36642114 275.82517414 41.35761642 281.90237999 C41.35684302 284.13571541 41.36122837 286.36905928 41.37107468 288.60237312 C41.38370253 291.64418774 41.37796756 294.68542408 41.36749268 297.72723389 C41.37957728 299.06145783 41.37957728 299.06145783 41.39190602 300.42263579 C41.34394514 306.3517432 41.34394514 306.3517432 39.66453171 309.51704788 C36.50886109 312.3284743 33.27781982 312.14307902 29.24682617 312.19287109 C28.0651738 312.20893402 26.88352142 312.22499695 25.6660614 312.24154663 C20.26687151 312.28600332 14.86782632 312.32749036 9.46850586 312.35009766 C6.61954613 312.36343297 3.77130337 312.39128036 0.92260742 312.43212891 C-3.18322797 312.49099556 -7.28829581 312.50876457 -11.39453125 312.5234375 C-13.30260307 312.55744156 -13.30260307 312.55744156 -15.2492218 312.59213257 C-16.44033066 312.58928253 -17.63143951 312.5864325 -18.85864258 312.58349609 C-19.90216385 312.59158295 -20.94568512 312.5996698 -22.02082825 312.60800171 C-25.92956423 311.81029068 -28.52618611 310.07298642 -31 307 C-31.59680266 304.01880666 -31.7966859 301.84806592 -31.73257446 298.87374878 C-31.7389623 298.0595658 -31.74535014 297.24538283 -31.75193155 296.40652764 C-31.76615477 293.6789573 -31.7376728 290.95351116 -31.70947266 288.22607422 C-31.71109465 286.26916619 -31.7154091 284.31225881 -31.72221375 282.35536194 C-31.73124127 278.13729913 -31.72147547 273.91984153 -31.69731522 269.70183945 C-31.65940546 263.00650884 -31.6650915 256.31164307 -31.67684937 249.61624146 C-31.69371466 236.57698729 -31.66564434 223.53801163 -31.63343048 210.49880219 C-31.59500728 193.98277137 -31.57901543 177.46679326 -31.59863508 160.95072758 C-31.60404623 155.39925119 -31.60043261 149.84808595 -31.57527542 144.29665756 C-29.51868369 99.5669295 -29.51868369 99.5669295 -45 59 C-45.639375 58.13375 -46.27875 57.2675 -46.9375 56.375 C-54.77841943 47.34606247 -68.23677237 41.38536435 -80 40 C-100.99314248 38.59185182 -120.92075786 41.19751243 -138.0546875 54.34375 C-140.46568264 56.49003647 -142.75164785 58.68515315 -145 61 C-145.83144531 61.78632813 -146.66289063 62.57265625 -147.51953125 63.3828125 C-151.88626491 67.99023227 -154.83392816 73.53659554 -158 79 C-158.48984375 79.81597656 -158.9796875 80.63195312 -159.484375 81.47265625 C-166.16336898 93.49072257 -168.16425193 108.65717632 -168.13130188 122.217453 C-168.13341759 123.00480263 -168.13553331 123.79215225 -168.13771313 124.60336095 C-168.14366584 127.22020743 -168.14271641 129.83700504 -168.1418457 132.45385742 C-168.14488018 134.33852723 -168.14840243 136.22319631 -168.15237427 138.10786438 C-168.16023872 142.15545418 -168.16539877 146.20303527 -168.16866493 150.25063133 C-168.17459072 156.65021315 -168.1911437 163.04973984 -168.21000671 169.44929504 C-168.21634317 171.64242455 -168.22266881 173.83555409 -168.22898388 176.02868366 C-168.23214969 177.12658777 -168.2353155 178.22449188 -168.23857725 179.3556658 C-168.28063097 194.24743631 -168.31365688 209.13917985 -168.32592773 224.03100586 C-168.3342993 234.0876038 -168.35675021 244.14406386 -168.3952834 254.20059282 C-168.4150624 259.5198691 -168.42744219 264.8389392 -168.42244911 270.15825462 C-168.41781403 275.15623722 -168.4315455 280.15382793 -168.45946121 285.15173149 C-168.46639024 286.98632776 -168.46648122 288.8209644 -168.45926094 290.65555954 C-168.45040352 293.15867468 -168.46601431 295.66048864 -168.48774719 298.16349792 C-168.47930466 298.89053883 -168.47086212 299.61757974 -168.46216375 300.36665219 C-168.53942422 305.17333941 -169.59084982 307.62385934 -173 311 C-175.65468048 312.32734024 -177.6826666 312.14173374 -180.65551758 312.16113281 C-181.84047318 312.17074036 -183.02542877 312.1803479 -184.24629211 312.19024658 C-185.53271103 312.19449646 -186.81912994 312.19874634 -188.14453125 312.203125 C-190.1201429 312.21167511 -190.1201429 312.21167511 -192.13566589 312.22039795 C-194.9274433 312.23090825 -197.71919192 312.23675038 -200.51098633 312.24023438 C-204.08211892 312.24571235 -207.65286893 312.26972477 -211.22388172 312.29820633 C-214.6349242 312.32135532 -218.04591428 312.32328419 -221.45703125 312.328125 C-222.73737747 312.3404718 -224.01772369 312.3528186 -225.33686829 312.36553955 C-226.53128036 312.36253845 -227.72569244 312.35953735 -228.95629883 312.35644531 C-230.00505692 312.36009094 -231.053815 312.36373657 -232.13435364 312.36749268 C-235.52550833 311.93260841 -237.32846634 311.1282007 -240 309 C-241.76157513 305.43682338 -242.2507854 302.55496733 -242.25447559 298.60419464 C-242.26322388 296.98978336 -242.26322388 296.98978336 -242.27214891 295.3427577 C-242.26647992 293.57793822 -242.26647992 293.57793822 -242.26069641 291.77746582 C-242.26452196 290.52307095 -242.26834751 289.26867608 -242.27228898 287.97626925 C-242.28258162 284.49690445 -242.28038397 281.01764256 -242.27610838 277.53826928 C-242.27364349 273.78497722 -242.28265231 270.03171009 -242.29014587 266.27842712 C-242.30290095 258.92670448 -242.30468561 251.57501835 -242.30234561 244.22328651 C-242.3005634 238.24899696 -242.30231001 232.27471851 -242.30657005 226.3004303 C-242.30716524 225.45051546 -242.30776043 224.60060062 -242.30837366 223.72493079 C-242.30958539 221.99840812 -242.31079952 220.27188544 -242.31201603 218.54536277 C-242.32289443 202.35132689 -242.3207275 186.15731183 -242.31463119 169.96327478 C-242.30946028 155.14243235 -242.32072152 140.32165561 -242.33972941 125.50082618 C-242.35909161 110.28728057 -242.36736675 95.07376606 -242.36360615 79.86020803 C-242.36169184 71.31710746 -242.36420417 62.77406283 -242.37832069 54.23097229 C-242.39021478 46.95922347 -242.39166152 39.68756502 -242.37953053 32.415815 C-242.37362826 28.70481375 -242.37257942 24.99397797 -242.38453293 21.28298759 C-242.39733242 17.26270434 -242.38695961 13.24281749 -242.3742218 9.22253418 C-242.38159609 8.04598786 -242.38897037 6.86944154 -242.39656812 5.6572423 C-242.38936158 4.58096811 -242.38215503 3.50469392 -242.37473011 2.39580536 C-242.37478513 1.46782119 -242.37484014 0.53983703 -242.37489682 -0.41626787 C-241.91651817 -3.57534414 -240.90446057 -5.45329212 -239 -8 C-235.84955345 -9.05014885 -233.59933005 -9.13925294 -230.29101562 -9.16113281 C-229.11970093 -9.17074036 -227.94838623 -9.1803479 -226.74157715 -9.19024658 C-225.47591919 -9.19449646 -224.21026123 -9.19874634 -222.90625 -9.203125 C-220.95893982 -9.21167511 -220.95893982 -9.21167511 -218.97229004 -9.22039795 C-216.22517506 -9.23089431 -213.47808924 -9.23674646 -210.73095703 -9.24023438 C-207.21010002 -9.24572824 -203.68962796 -9.26978039 -200.16889191 -9.29820633 C-196.8105182 -9.3212955 -193.45219902 -9.32327913 -190.09375 -9.328125 C-188.19526306 -9.3466452 -188.19526306 -9.3466452 -186.25842285 -9.36553955 C-185.08710815 -9.36253845 -183.91579346 -9.35953735 -182.70898438 -9.35644531 C-181.16035706 -9.36191376 -181.16035706 -9.36191376 -179.58044434 -9.36749268 C-176.61756694 -8.94553599 -175.77197709 -8.35548985 -174 -6 C-172.82530556 -3.65061112 -172.79965111 -2.04926795 -172.68359375 0.5703125 C-172.64169922 1.46621094 -172.59980469 2.36210937 -172.55664062 3.28515625 C-172.51732422 4.22230469 -172.47800781 5.15945312 -172.4375 6.125 C-172.39431641 7.06988281 -172.35113281 8.01476562 -172.30664062 8.98828125 C-172.20040928 11.32537092 -172.09836824 13.6625683 -172 16 C-170.10756765 16.64633691 -170.10756765 16.64633691 -168 17 C-165.78301247 15.42934951 -165.78301247 15.42934951 -163.625 13.125 C-157.60831322 7.41890914 -151.02868804 3.31715455 -144 -1 C-143.20335937 -1.54527344 -142.40671875 -2.09054688 -141.5859375 -2.65234375 C-103.43919274 -28.06104123 -37.49711103 -25.61098652 0 0 Z " fill="#000000" transform="translate(952,180)"/>
</svg>
