<?xml version="1.0" encoding="UTF-8"?>
<svg version="1.1" xmlns="http://www.w3.org/2000/svg" width="1200" height="1200">
<path d="M0 0 C0.73685658 -0.00044186 1.47371315 -0.00088371 2.23289871 -0.00133896 C24.6905208 -0.00839651 46.8843096 0.36081197 69.1875 3.25 C70.62721418 3.42922956 72.06699515 3.60792321 73.50683594 3.78613281 C137.24982849 11.76338059 199.37058897 29.12285409 257.1875 57.25 C258.37263184 57.81944336 259.55776367 58.38888672 260.77880859 58.97558594 C303.24016663 79.39347698 342.99161952 105.08031769 379.1875 135.25 C379.76725586 135.73065918 380.34701172 136.21131836 380.94433594 136.70654297 C388.32378142 142.83211705 395.46491412 149.16864751 402.49047852 155.6965332 C403.7780202 156.87515898 405.07757254 158.04068061 406.38256836 159.19995117 C412.43358554 164.57843366 418.24517416 170.15162401 423.95678711 175.88891602 C425.38087492 177.31839717 426.81028044 178.74240511 428.24023438 180.16601562 C432.8914664 184.8237302 437.4211077 189.52456061 441.70532227 194.52270508 C443.76567523 196.92379176 445.91576457 199.23867697 448.0625 201.5625 C452.9832178 206.96491457 457.61542553 212.55168859 462.1875 218.25 C463.09975289 219.37020516 464.01253803 220.48997705 464.92578125 221.609375 C508.554755 275.30995661 542.49484432 336.9290846 565.1875 402.25 C565.59564941 403.41982422 566.00379883 404.58964844 566.42431641 405.79492188 C580.78645296 447.41878075 589.99432522 490.55670006 595.1875 534.25 C595.41397217 536.01029541 595.41397217 536.01029541 595.64501953 537.80615234 C598.30040614 558.99481978 598.5051185 580.22628951 598.55586243 601.55010986 C598.56235959 603.76464122 598.57379932 605.97909882 598.58630371 608.19360352 C598.72014366 635.55963208 596.95795911 662.7221809 592.9375 689.8125 C592.83556335 690.51205811 592.73362671 691.21161621 592.62860107 691.93237305 C580.47957835 774.7655736 549.84799044 855.13160823 504.1875 925.25 C503.49269531 926.32121094 502.79789063 927.39242187 502.08203125 928.49609375 C493.70113531 941.23159954 484.85733831 953.6621051 475.43945312 965.65087891 C474.14352716 967.30616656 472.86010831 968.97061525 471.578125 970.63671875 C462.24278868 982.71744242 452.21830383 994.17923644 441.84375 1005.375 C440.10245302 1007.25969791 438.37279335 1009.15522961 436.65625 1011.0625 C431.09633462 1017.22529777 425.35885519 1023.18265217 419.5 1029.0625 C418.7992334 1029.76785889 418.0984668 1030.47321777 417.37646484 1031.19995117 C413.3898747 1035.1748188 409.30153967 1038.96809793 405.03833008 1042.64428711 C402.42552246 1044.91106401 399.90614106 1047.26732176 397.375 1049.625 C392.78325319 1053.86186417 388.07795886 1057.90405883 383.20703125 1061.8203125 C380.9808284 1063.61164261 378.77261884 1065.41738303 376.57421875 1067.2421875 C351.06479154 1088.34801049 323.04596769 1107.04433565 294.1875 1123.25 C293.26404785 1123.77078125 292.3405957 1124.2915625 291.38916016 1124.828125 C247.51498927 1149.43409186 200.86858402 1168.51471784 152.1875 1181.25 C151.03540039 1181.55244629 149.88330078 1181.85489258 148.69628906 1182.16650391 C124.01406692 1188.56395573 99.03903436 1193.29125344 73.75 1196.5 C72.56946045 1196.65106201 71.3889209 1196.80212402 70.17260742 1196.95776367 C66.18176855 1197.43679402 62.18784779 1197.86034696 58.1875 1198.25 C56.85748962 1198.3808046 56.85748962 1198.3808046 55.50061035 1198.51425171 C37.49837643 1200.22761065 19.5601531 1200.61485149 1.49371338 1200.56805801 C-0.72326734 1200.56240886 -2.94024038 1200.55959382 -5.15722656 1200.55697632 C-27.16655073 1200.51922181 -48.9531793 1200.01137586 -70.8125 1197.25 C-72.24506382 1197.07621966 -73.67768256 1196.90289156 -75.11035156 1196.72998047 C-141.52402472 1188.60723328 -205.56775491 1169.28065261 -265.8125 1140.25 C-266.79444336 1139.78094238 -267.77638672 1139.31188477 -268.78808594 1138.82861328 C-283.59104797 1131.7337176 -297.74013318 1123.69095125 -311.8125 1115.25 C-313.07416992 1114.49904053 -313.07416992 1114.49904053 -314.36132812 1113.73291016 C-325.14099736 1107.31195771 -335.58028386 1100.5104834 -345.8125 1093.25 C-346.54500977 1092.73147461 -347.27751953 1092.21294922 -348.03222656 1091.67871094 C-361.72871969 1081.95729904 -374.94339881 1071.79843244 -387.70703125 1060.8828125 C-390.65670349 1058.36661783 -393.66720418 1055.93107031 -396.6875 1053.5 C-400.36332668 1050.51039856 -403.7718575 1047.42380094 -407.05249023 1044.0090332 C-408.70754186 1042.3548999 -410.41431444 1040.85447592 -412.203125 1039.34765625 C-417.76888713 1034.50930698 -422.937414 1029.27461365 -428.13989258 1024.05297852 C-429.871447 1022.316064 -431.60828359 1020.58456111 -433.34570312 1018.85351562 C-439.04938161 1013.15325894 -444.59125479 1007.40119557 -449.8125 1001.25 C-451.26695517 999.64231627 -452.72470895 998.03760285 -454.1875 996.4375 C-458.91826093 991.18819023 -463.38247052 985.75376055 -467.8125 980.25 C-468.73788408 979.11686303 -469.66368393 977.98406551 -470.58984375 976.8515625 C-488.79198417 954.49066494 -505.53868311 930.31521911 -519.8125 905.25 C-520.55282471 903.96585205 -520.55282471 903.96585205 -521.30810547 902.65576172 C-561.6284584 832.60315914 -587.91466044 756.03567671 -598.0625 675.75 C-598.28909302 673.96662231 -598.28909302 673.96662231 -598.52026367 672.1472168 C-598.99452595 668.18540145 -599.41466441 664.22002679 -599.8125 660.25 C-599.89970306 659.41040741 -599.98690613 658.57081482 -600.07675171 657.70578003 C-601.8736609 639.95544744 -602.15694977 622.29104141 -602.12817383 604.4699707 C-602.12356396 601.38095451 -602.13040568 598.29233419 -602.14868164 595.20336914 C-602.31257251 567.19342691 -600.6927359 539.48285774 -596.5625 511.75 C-596.45989868 511.04972687 -596.35729736 510.34945374 -596.25158691 509.62796021 C-587.52533719 450.42243817 -569.75975013 393.16177919 -543.8125 339.25 C-543.32668457 338.23454102 -542.84086914 337.21908203 -542.34033203 336.17285156 C-534.91884132 320.7347623 -526.63361346 305.92754083 -517.8125 291.25 C-517.31331055 290.41178711 -516.81412109 289.57357422 -516.29980469 288.70996094 C-509.87742671 277.92719546 -503.07495394 267.48499323 -495.8125 257.25 C-495.29397461 256.51749023 -494.77544922 255.78498047 -494.24121094 255.03027344 C-484.51877745 241.332341 -474.35934963 228.11559169 -463.44140625 215.3515625 C-460.9452295 212.425514 -458.53323366 209.43643248 -456.125 206.4375 C-452.93081705 202.50882578 -449.60195732 198.87910728 -445.9296875 195.39453125 C-444.12895866 193.57054577 -442.48016849 191.71191765 -440.81640625 189.765625 C-436.27359749 184.53474986 -431.37574723 179.66325001 -426.4699707 174.77709961 C-424.87791034 173.19040054 -423.2912701 171.59842258 -421.70507812 170.00585938 C-416.24521494 164.54242678 -410.68581523 159.27031241 -404.8125 154.25 C-403.03679779 152.63032183 -401.26541693 151.00588282 -399.5 149.375 C-394.09756684 144.45492695 -388.52335243 139.80644987 -382.8125 135.25 C-382.30412598 134.84201172 -381.79575195 134.43402344 -381.27197266 134.01367188 C-358.66270873 115.89306267 -334.85783172 98.76139119 -309.69482422 84.33691406 C-307.5986751 83.12653068 -305.52063871 81.88764392 -303.44140625 80.6484375 C-235.26079272 40.40831687 -157.75165124 14.43800202 -64.875 3 C-64.13358765 2.91664398 -63.39217529 2.83328796 -62.6282959 2.74740601 C-57.69393103 2.19988505 -52.75650388 1.70215335 -47.8125 1.25 C-46.65645264 1.14397461 -45.50040527 1.03794922 -44.30932617 0.92871094 C-29.57879789 -0.19395993 -14.76530847 0.00405379 0 0 Z " fill="#DF1F25" transform="translate(601.8125,-0.25)"/>
<path d="M0 0 C0.69061523 0.17160645 1.38123047 0.34321289 2.09277344 0.52001953 C35.86777955 9.10571509 63.33370349 29.23278087 81.36425781 59.27294922 C93.21632735 79.77528534 103.05332536 104.03243892 105.5546875 127.7734375 C105.63960449 128.56927246 105.72452148 129.36510742 105.81201172 130.18505859 C105.87404785 130.78398926 105.93608398 131.38291992 106 132 C106.84012146 131.99585193 106.84012146 131.99585193 107.69721508 131.99162006 C121.37952721 131.92511803 135.06181069 131.87579439 148.7442503 131.84456348 C155.36121864 131.82894952 161.97806979 131.80778938 168.5949707 131.77368164 C174.98812312 131.74093583 181.38116323 131.72311492 187.77439308 131.71536827 C190.20586729 131.70985202 192.6373358 131.69908056 195.06876183 131.68280983 C229.360987 131.46258849 229.360987 131.46258849 241.1875 141.9375 C250.19493365 151.20985817 252.10051134 162.13413347 252.06924438 174.61972046 C251.95555556 180.16962892 251.49084432 185.67844554 251.01171875 191.20703125 C250.85741646 193.05383232 250.85741646 193.05383232 250.69999695 194.9379425 C250.42438073 198.22092951 250.14423051 201.50348479 249.8615036 204.78586578 C249.62740399 207.51244316 249.39703479 210.23933122 249.16651535 212.96621323 C247.77882042 229.36876063 246.31043272 245.76067949 244.67578125 262.140625 C243.92168504 269.71432641 243.23232176 277.29346329 242.5625 284.875 C242.50139038 285.56606842 242.44028076 286.25713684 242.37731934 286.96914673 C241.57861132 296.03756071 240.82417348 305.10911959 240.09765625 314.18359375 C238.08328728 339.32036621 235.87348765 364.42900786 233.47244263 389.53189087 C233.31786087 391.14805801 233.31786087 391.14805801 233.16015625 392.796875 C233.05879364 393.85603119 232.95743103 394.91518738 232.85299683 396.00643921 C231.61087432 409.02116951 230.47097564 422.04432322 229.34277344 435.06933594 C228.98661397 439.15350082 228.62335881 443.23697998 228.2578125 447.3203125 C226.86833463 462.8671856 225.55278673 478.41770134 224.3125 493.97720337 C223.35571824 505.94990063 222.29062853 517.90693187 221.12280273 529.86108398 C220.41962336 537.15674088 219.80552555 544.45065904 219.28515625 551.76171875 C219.16294323 553.43035194 219.04054801 555.0989718 218.91796875 556.76757812 C218.68419487 559.95423578 218.46952713 563.14138865 218.265625 566.33007812 C217.2713921 580.58599016 214.57369955 593.96779484 203.875 604.25 C195.36734567 611.05233386 185.08585197 613.12139372 174.47044182 613.13142776 C173.35872101 613.13450672 173.35872101 613.13450672 172.22454119 613.13764787 C169.73934816 613.1433054 167.25421077 613.14186216 164.76901245 613.14044189 C162.96984803 613.14302624 161.17068417 613.1460396 159.37152112 613.1494453 C154.42575395 613.15751033 149.48000129 613.15930459 144.53422832 613.16004276 C139.20071715 613.16189418 133.86721349 613.16944197 128.53370667 613.17617798 C116.87040609 613.1897583 105.20710895 613.19578555 93.54380178 613.20018864 C86.26068772 613.20295157 78.97757499 613.20718901 71.69446182 613.21169281 C51.5282366 613.22388508 31.36201244 613.23418448 11.19578362 613.2375679 C9.90516697 613.23778747 8.61455032 613.23800703 7.28482408 613.23823325 C5.99112592 613.23845153 4.69742776 613.23866981 3.36452663 613.2388947 C0.74301775 613.23933817 -1.87849112 613.23978473 -4.5 613.24023438 C-5.80035792 613.2404558 -7.10071584 613.24067723 -8.44047855 613.24090537 C-29.50964928 613.24485316 -50.57878542 613.2623068 -71.6479428 613.2855939 C-93.28114947 613.30931136 -114.91433878 613.32176993 -136.54755867 613.32293582 C-148.69306247 613.32385236 -160.83852121 613.32959934 -172.9840126 613.34775543 C-183.32644544 613.36316171 -193.66881928 613.36827374 -204.01126142 613.36001733 C-209.28662835 613.35611273 -214.56187649 613.35703127 -219.83722878 613.37107468 C-224.67099135 613.38382468 -229.50454599 613.38260634 -234.33830832 613.37048396 C-236.08261287 613.36852889 -237.82693221 613.37159662 -239.571216 613.38032833 C-254.16143271 613.44871384 -267.73964979 612.42496353 -279.03515625 602.1484375 C-289.36744941 591.13609956 -290.26915626 577.00340643 -291.50195312 562.63818359 C-291.64038509 561.07683641 -291.77933974 559.51553549 -291.91876888 557.95427704 C-292.2993866 553.6750484 -292.67253073 549.39519636 -293.04441905 545.11520147 C-293.44839596 540.48105243 -293.85930643 535.84751739 -294.26930237 531.21389771 C-295.07332981 522.11414631 -295.87082815 513.01383398 -296.66597289 503.91330254 C-297.31414243 496.49613761 -297.96459485 489.07917619 -298.6166687 481.66235352 C-298.709668 480.60452455 -298.8026673 479.54669558 -298.89848477 478.45681119 C-299.08762598 476.30550122 -299.27677174 474.15419165 -299.465922 472.00288248 C-301.15286987 452.81324613 -302.83342029 433.62305437 -304.51123047 414.43261719 C-306.29483495 394.03239375 -308.08722863 373.63295704 -309.88499045 353.2339766 C-311.67609404 332.90999667 -313.46205059 312.5855707 -315.24243355 292.26064873 C-315.44563149 289.94111946 -315.64883721 287.62159088 -315.85205078 285.30206299 C-315.95211107 284.15994689 -316.05217136 283.01783078 -316.15526378 281.8411051 C-316.85965982 273.80470488 -317.56735555 265.76859918 -318.27636719 257.73260498 C-319.14326141 247.90630954 -320.00517288 238.07959198 -320.86084026 228.2523123 C-321.29840246 223.22845048 -321.73816154 218.20480764 -322.1840229 213.18167496 C-322.59381263 208.56421405 -322.99704079 203.94622636 -323.39528942 199.32775617 C-323.53982913 197.6644849 -323.68666493 196.00141104 -323.83616161 194.33857799 C-327.14907731 157.42370066 -327.14907731 157.42370066 -316.625 144.7421875 C-309.36481448 136.95843091 -301.32799334 132.29436568 -290.47455215 131.91073418 C-287.29460479 131.87679615 -284.11615159 131.87642698 -280.93603516 131.88647461 C-279.72571625 131.88632858 -278.51539734 131.88618256 -277.2684021 131.8860321 C-273.96305297 131.88660792 -270.65776689 131.89161091 -267.35242891 131.89860606 C-263.89310677 131.90487246 -260.43378373 131.905446 -256.97445679 131.90663147 C-250.4297778 131.90973511 -243.88511558 131.91793544 -237.34044397 131.92798096 C-229.88700278 131.93917216 -222.43356077 131.94466012 -214.98011327 131.94967639 C-199.65339914 131.96011888 -184.32670174 131.97769956 -169 132 C-168.91875602 131.14082773 -168.91875602 131.14082773 -168.83587074 130.26429844 C-168.58597533 127.64081061 -168.33135475 125.01780148 -168.07666016 122.39477539 C-167.9489901 121.04330288 -167.9489901 121.04330288 -167.81874084 119.66452789 C-167.17622631 113.09661192 -166.15150097 106.80244577 -164.375 100.4375 C-164.11630127 99.48552734 -163.85760254 98.53355469 -163.59106445 97.55273438 C-158.09553804 78.12668751 -149.28513966 60.28947408 -136 45 C-134.95392578 43.77216797 -134.95392578 43.77216797 -133.88671875 42.51953125 C-101.23732867 5.1148126 -48.53604664 -12.20755113 0 0 Z " fill="#FDFDFD" transform="translate(636,281)"/>
<path d="M0 0 C13.37988945 11.24266917 20.75076041 27.89531754 23 45 C24.67384052 66.21653499 19.90763727 86.90478543 5.9375 103.44140625 C-7.72066953 117.85565302 -27.57186593 125.51162794 -47.27734375 126.203125 C-70.64628371 126.60099002 -90.53820933 121.29089779 -108.01171875 105.140625 C-123.03620394 89.33959338 -126.55260371 68.86501428 -126.2734375 47.8515625 C-125.72982574 31.08571454 -118.70995432 15.51063873 -106.8828125 3.6875 C-77.77717012 -23.44621539 -30.9789761 -24.39645794 0 0 Z " fill="#DF1F25" transform="translate(758,618)"/>
<path d="M0 0 C5.3778649 4.23633698 8.89020029 9.49060041 11 16 C11.2696023 18.76814778 11.4017633 21.30158514 11.37231445 24.0612793 C11.37596512 24.83662521 11.37961578 25.61197113 11.38337708 26.41081238 C11.39145357 28.9655072 11.37787056 31.51956045 11.36328125 34.07421875 C11.3627612 35.88043721 11.36328449 37.68665624 11.36479187 39.49287415 C11.3647022 43.28822239 11.35430427 47.08335807 11.33618164 50.87866211 C11.31383191 55.65559148 11.31307172 60.4322045 11.3194418 65.2091713 C11.39984003 145.2795145 11.39984003 145.2795145 -7.625 164.8828125 C-20.792292 176.6207603 -36.75981845 178.25958554 -53.625 178.3125 C-54.80934128 178.31642761 -54.80934128 178.31642761 -56.01760864 178.32043457 C-68.14618753 178.32475524 -79.32189154 177.49738171 -91 174 C-92.17175781 173.69964844 -93.34351563 173.39929688 -94.55078125 173.08984375 C-102.75521719 170.77577208 -107.4085565 167.47940931 -111.68359375 160.08984375 C-116.13180362 151.48143761 -119.30820551 143.81154131 -118 134 C-115.81732057 127.76377307 -111.7225003 122.39470357 -106 119 C-103.18303423 118.15253667 -101.61984054 117.75569047 -98.84692383 118.84863281 C-98.14075928 119.29561523 -97.43459473 119.74259766 -96.70703125 120.203125 C-95.51303711 120.93208984 -95.51303711 120.93208984 -94.29492188 121.67578125 C-93.47572266 122.19527344 -92.65652344 122.71476563 -91.8125 123.25 C-81.67867292 129.63569926 -72.18883945 133.49422412 -60 132 C-55.51995764 130.70852199 -52.76394381 128.86717946 -49.6875 125.375 C-45.89082205 117.7816441 -44.55517158 110.53260835 -44.63110352 102.10327148 C-44.62733704 101.17017151 -44.62357056 100.23707153 -44.61968994 99.2756958 C-44.61329988 97.26840146 -44.61354724 95.26107681 -44.61987495 93.25378227 C-44.62905229 90.07043841 -44.61868663 86.88767514 -44.60325623 83.70436096 C-44.5633337 74.66041867 -44.56195466 65.61652559 -44.56420898 56.57250977 C-44.5642602 51.0235939 -44.54504107 45.47499384 -44.51487541 39.92616463 C-44.50409685 36.80134925 -44.51615034 33.67714812 -44.52870178 30.55235291 C-44.51979334 28.6240072 -44.50971755 26.69566641 -44.49829102 24.76733398 C-44.51290627 23.47890343 -44.51290627 23.47890343 -44.52781677 22.16444397 C-44.44174916 14.84851597 -42.03816811 9.39694685 -38.3125 3.1875 C-28.52592805 -6.07006806 -11.73879798 -4.97486492 0 0 Z " fill="#DF1F25" transform="translate(535,564)"/>
<path d="M0 0 C16.42629673 12.23285847 26.64015324 29.78339954 31.04858398 49.62133789 C31.24452148 50.38961914 31.44045898 51.15790039 31.64233398 51.94946289 C32.22752359 55.79820992 32.04858398 59.72835696 32.04858398 63.62133789 C-17.45141602 63.62133789 -66.95141602 63.62133789 -117.95141602 63.62133789 C-117.95141602 40.99407557 -110.26284132 23.45256418 -94.65063477 7.23071289 C-68.93609867 -17.51584558 -29.03553628 -20.65981938 0 0 Z " fill="#DF1F25" transform="translate(646.951416015625,348.378662109375)"/>
<path d="M0 0 C0.9075 -0.01611328 1.815 -0.03222656 2.75 -0.04882812 C9.42632178 -0.05363816 15.20569666 0.64570743 20.6484375 4.890625 C21.09445312 5.44234375 21.54046875 5.9940625 22 6.5625 C22.46148438 7.10390625 22.92296875 7.6453125 23.3984375 8.203125 C26.92330173 14.26499342 26.92223755 20.57157986 26.91552734 27.38769531 C26.92224457 28.37566605 26.92896179 29.36363678 26.93588257 30.38154602 C26.95481719 33.63462409 26.95878464 36.88749531 26.9609375 40.140625 C26.96736907 42.41355472 26.9740977 44.68648362 26.98110962 46.95941162 C26.99307142 51.72051919 26.99679162 56.48155426 26.99560547 61.24267578 C26.99540246 67.32302453 27.02269116 73.40290495 27.05714989 79.48314285 C27.07946362 84.17767442 27.08344161 88.87209413 27.08238602 93.56667328 C27.08473575 95.80721397 27.09352359 98.04775804 27.10905075 100.28824615 C27.27148444 126.14973951 27.27148444 126.14973951 20.375 133.8125 C13.50373773 137.56046124 7.85255891 138.79913408 0.125 138.6875 C-0.67808594 138.69910156 -1.48117187 138.71070313 -2.30859375 138.72265625 C-9.1481731 138.6894006 -14.77376935 137.45128964 -20.1875 133 C-26.19226292 125.62271984 -26.5254268 118.63376393 -26.55200195 109.5402832 C-26.55857315 108.5607518 -26.56514435 107.5812204 -26.57191467 106.57200623 C-26.5915975 103.33576372 -26.60329939 100.09956752 -26.61328125 96.86328125 C-26.61735678 95.75502676 -26.6214323 94.64677227 -26.62563133 93.50493431 C-26.6464711 87.63846398 -26.66078166 81.77201689 -26.67016602 75.90551758 C-26.68122353 69.8609116 -26.71562229 63.81667443 -26.75533772 57.77219868 C-26.78154011 53.11117388 -26.78986111 48.45023648 -26.79344749 43.78914452 C-26.79830435 41.56172382 -26.80989245 39.33430678 -26.82848549 37.10695839 C-26.85295264 33.9815751 -26.85189778 30.8571401 -26.8449707 27.73168945 C-26.85778076 26.82172211 -26.87059082 25.91175476 -26.88378906 24.97421265 C-26.8285461 18.09440114 -25.51362357 11.09394246 -20.99841785 5.65398121 C-14.78187201 0.08852467 -7.8864271 -0.02776911 0 0 Z " fill="#DF2026" transform="translate(591.375,602.6875)"/>
<path d="M0 0 C7.96001896 4.40223657 12.56786437 10.46933015 15.24609375 19.2421875 C16.81414097 29.91502505 16.02607363 39.52601324 9.703125 48.41015625 C5.0514713 54.25399579 -0.394435 57.79705496 -7.75390625 59.2421875 C-17.90569381 60.0711822 -24.43304952 58.58076427 -32.94140625 53.2421875 C-38.66893345 48.13860879 -42.30784405 39.16349665 -42.9921875 31.61328125 C-43.24189798 21.74314594 -41.39268938 14.00141049 -35.00390625 6.3046875 C-25.64834168 -3.47056595 -12.23299316 -5.67610882 0 0 Z " fill="#FDFCFC" transform="translate(719.75390625,643.7578125)"/>
<path d="M0 0 C5.30230092 3.56465549 9.18075004 8.2880212 11.0859375 14.40234375 C12.07439701 23.50657604 11.84945541 31.88218688 6.0859375 39.40234375 C0.63450799 44.86672203 -6.11810063 46.62004872 -13.76171875 46.73217773 C-24.02872359 46.64439385 -31.51246824 45.71770894 -39.18359375 38.4140625 C-43.92940927 32.89691805 -45.57649988 27.02724845 -45.23046875 19.81640625 C-44.30585332 12.76193294 -41.36383961 7.03184513 -35.9140625 2.40234375 C-25.93634199 -4.49325367 -10.95891593 -5.25504331 0 0 Z " fill="#DF2026" transform="translate(607.9140625,541.59765625)"/>
</svg>
