<svg width="816" height="301" xmlns="http://www.w3.org/2000/svg" xmlns:xlink="http://www.w3.org/1999/xlink" xml:space="preserve" overflow="hidden"><g transform="translate(-136 -105)"><g><g><g><g><path d="M382.062 183.113 382.062 73.2451 398.394 73.2451 414.725 73.2451 414.725 183.113 414.725 292.98 398.394 292.98 382.062 292.98 382.062 183.113Z" fill="#FFFFFF" fill-rule="nonzero" fill-opacity="1" transform="matrix(1.00171 0 0 -1 136 405.954)"/><path d="M21.7756 177.174 21.7756 73.2451 39.097 73.2451 56.4185 73.2451 56.4185 104.721 56.4185 136.097 65.1287 146.193C69.8798 151.736 74.0369 156.289 74.3338 156.289 74.9277 156.388 108.284 116.598 133.029 86.4094L143.719 73.2451 165.494 73.2451C182.618 73.2451 187.072 73.542 186.478 74.4328 186.082 75.1257 177.372 85.7165 167.276 97.99 157.18 110.264 140.452 130.554 130.158 143.026 119.865 155.596 108.68 169.255 105.117 173.413 101.652 177.669 98.9798 181.529 99.1778 182.024 99.2768 182.42 118.38 204.393 141.541 230.623 164.702 256.952 184.003 279.024 184.399 279.816 185.092 280.905 181.331 281.103 164.109 281.103L143.026 281.103 126.694 262.099C93.7339 223.892 58.2991 183.608 57.4083 183.311 56.8144 183.113 56.4185 200.731 56.4185 232.009L56.4185 281.103 39.097 281.103 21.7756 281.103 21.7756 177.174Z" fill="#FFFFFF" fill-rule="nonzero" fill-opacity="1" transform="matrix(1.00171 0 0 -1 136 405.954)"/><path d="M244.48 234.681C224.288 230.425 206.274 218.053 194.297 200.434 188.656 192.021 186.478 187.468 183.509 177.471 181.034 169.651 180.836 167.177 180.737 152.924 180.638 134.613 181.925 128.179 188.161 115.311 200.83 88.9829 224.585 72.6512 255.17 69.2859 277.341 66.9104 297.137 71.9583 313.37 84.2318 316.142 86.4094 318.715 88.092 319.012 88.092 319.408 88.092 319.705 84.7267 319.705 80.6686L319.705 73.2451 336.531 73.2451 353.358 73.2451 353.358 152.924 353.358 232.603 336.531 232.603 319.705 232.603 319.705 224.585 319.705 216.667 313.865 221.121C305.749 227.357 295.653 232.207 285.854 234.582 275.164 237.156 256.457 237.156 244.48 234.681ZM278.331 203.799C287.338 201.919 297.137 196.574 303.769 189.942 328.514 165.197 321.585 121.547 290.506 106.403 274.471 98.5839 253.487 99.3757 237.947 108.482 219.438 119.37 209.936 143.521 215.281 166.088 219.834 185.389 235.077 199.939 254.873 203.898 260.812 205.086 272.392 204.987 278.331 203.799Z" fill="#FFFFFF" fill-rule="nonzero" fill-opacity="1" transform="matrix(1.00171 0 0 -1 136 405.954)"/><path d="M512.814 235.572C501.531 233.196 490.841 228.346 482.032 221.814 476.39 217.558 474.905 216.964 475.202 219.042 475.301 219.636 475.301 223.002 475.202 226.466L475.103 232.603 458.771 232.603 442.44 232.603 442.44 120.755 442.44 8.90818 459.068 9.10614 475.598 9.40308 475.598 48.7971C475.598 70.3747 475.697 88.092 475.895 88.092 476.093 88.092 478.468 86.3104 481.339 84.2318 495.097 73.9379 509.845 69.1869 528.552 69.0879 546.963 68.9889 560.226 72.4532 575.271 81.5594 585.268 87.4982 590.217 92.2492 611.002 115.707 655.048 165.593 669.005 181.034 675.735 187.765 693.354 205.284 718.297 209.837 740.171 199.444 757.592 191.229 768.38 173.413 768.38 152.924 768.38 137.78 763.728 126.1 753.632 116.004 740.963 103.335 721.464 98.089 702.955 102.444 688.603 105.809 678.606 113.035 662.076 131.841 654.949 139.957 648.714 146.49 648.219 146.292 647.823 146.094 642.676 140.65 637.034 134.217L626.641 122.438 637.034 110.758C660.294 84.7267 673.756 75.4226 695.333 70.6716 706.716 68.1971 726.512 68.3951 736.509 71.0675 745.714 73.542 756.008 78.59 762.936 84.0339 765.708 86.3104 768.182 88.092 768.281 88.092 768.479 88.092 768.578 84.8257 768.677 80.8665L768.677 73.74 785.702 73.443 802.726 73.2451 802.726 152.924 802.726 232.603 785.702 232.405 768.677 232.108 768.578 229.138C768.479 227.555 768.38 224.288 768.281 222.012L768.083 217.756 761.947 222.309C748.188 232.405 738.291 235.671 718.989 236.265 698.006 237.057 683.159 233.394 668.114 223.595 659.503 218.053 655.048 213.697 635.45 191.526 625.849 180.638 611.992 164.999 604.668 156.883 597.343 148.668 586.752 136.691 581.012 130.257 569.233 116.895 563.69 112.144 554.287 107.393 521.624 90.9625 484.902 107.492 477.578 142.036 475.796 150.746 475.697 156.091 477.578 164.603 481.834 184.795 497.374 200.038 517.466 203.997 531.324 206.67 548.15 203.305 560.028 195.386 566.264 191.229 569.035 188.557 584.278 171.532L595.859 158.467 605.064 168.563C610.013 174.106 614.962 179.648 615.951 180.836 617.832 183.014 617.733 183.014 604.272 198.356 585.664 219.636 574.578 227.555 555.772 233.196 548.15 235.473 544.686 235.869 532.017 236.166 523.9 236.364 515.19 236.067 512.814 235.572Z" fill="#FFFFFF" fill-rule="nonzero" fill-opacity="1" transform="matrix(1.00171 0 0 -1 136 405.954)"/></g></g></g></g></g></svg>