<?xml version="1.0" standalone="no"?>
<!DOCTYPE svg PUBLIC "-//W3C//DTD SVG 20010904//EN"
 "http://www.w3.org/TR/2001/REC-SVG-20010904/DTD/svg10.dtd">
<svg version="1.0" xmlns="http://www.w3.org/2000/svg"
 width="823.000000pt" height="303.000000pt" viewBox="0 0 823.000000 303.000000"
 preserveAspectRatio="xMidYMid meet">

<g transform="translate(0.000000,303.000000) scale(0.100000,-0.100000)"
fill="#000000" stroke="none">
<path d="M3860 1850 l0 -1110 165 0 165 0 0 1110 0 1110 -165 0 -165 0 0
-1110z"/>
<path d="M220 1790 l0 -1050 175 0 175 0 0 318 0 317 88 102 c48 56 90 102 93
102 6 1 343 -401 593 -706 l108 -133 220 0 c173 0 218 3 212 12 -4 7 -92 114
-194 238 -102 124 -271 329 -375 455 -104 127 -217 265 -253 307 -35 43 -62
82 -60 87 1 4 194 226 428 491 234 266 429 489 433 497 7 11 -31 13 -205 13
l-213 0 -165 -192 c-333 -386 -691 -793 -700 -796 -6 -2 -10 176 -10 492 l0
496 -175 0 -175 0 0 -1050z"/>
<path d="M2470 2371 c-204 -43 -386 -168 -507 -346 -57 -85 -79 -131 -109
-232 -25 -79 -27 -104 -28 -248 -1 -185 12 -250 75 -380 128 -266 368 -431
677 -465 224 -24 424 27 588 151 28 22 54 39 57 39 4 0 7 -34 7 -75 l0 -75
170 0 170 0 0 805 0 805 -170 0 -170 0 0 -81 0 -80 -59 45 c-82 63 -184 112
-283 136 -108 26 -297 26 -418 1z m342 -312 c91 -19 190 -73 257 -140 250
-250 180 -691 -134 -844 -162 -79 -374 -71 -531 21 -187 110 -283 354 -229
582 46 195 200 342 400 382 60 12 177 11 237 -1z"/>
<path d="M5181 2380 c-114 -24 -222 -73 -311 -139 -57 -43 -72 -49 -69 -28 1
6 1 40 0 75 l-1 62 -165 0 -165 0 0 -1130 0 -1130 168 2 167 3 0 398 c0 218 1
397 3 397 2 0 26 -18 55 -39 139 -104 288 -152 477 -153 186 -1 320 34 472
126 101 60 151 108 361 345 445 504 586 660 654 728 178 177 430 223 651 118
176 -83 285 -263 285 -470 0 -153 -47 -271 -149 -373 -128 -128 -325 -181
-512 -137 -145 34 -246 107 -413 297 -72 82 -135 148 -140 146 -4 -2 -56 -57
-113 -122 l-105 -119 105 -118 c235 -263 371 -357 589 -405 115 -25 315 -23
416 4 93 25 197 76 267 131 28 23 53 41 54 41 2 0 3 -33 4 -73 l0 -72 172 -3
172 -2 0 805 0 805 -172 -2 -172 -3 -1 -30 c-1 -16 -2 -49 -3 -72 l-2 -43 -62
46 c-139 102 -239 135 -434 141 -212 8 -362 -29 -514 -128 -87 -56 -132 -100
-330 -324 -97 -110 -237 -268 -311 -350 -74 -83 -181 -204 -239 -269 -119
-135 -175 -183 -270 -231 -330 -166 -701 1 -775 350 -18 88 -19 142 0 228 43
204 200 358 403 398 140 27 310 -7 430 -87 63 -42 91 -69 245 -241 l117 -132
93 102 c50 56 100 112 110 124 19 22 18 22 -118 177 -188 215 -300 295 -490
352 -77 23 -112 27 -240 30 -82 2 -170 -1 -194 -6z"/>
</g>
</svg>
