<svg xmlns="http://www.w3.org/2000/svg" version="1.1" xmlns:xlink="http://www.w3.org/1999/xlink" xmlns:svgjs="http://svgjs.dev/svgjs" width="1440" height="250" preserveAspectRatio="none" viewBox="0 0 1440 250"><g mask="url(&quot;#SvgjsMask1099&quot;)" fill="none"><path d="M1 250L251 0L458 0L208 250z" fill="url(&quot;#SvgjsLinearGradient1100&quot;)"></path><path d="M276.6 250L526.6 0L574.6 0L324.6 250z" fill="url(&quot;#SvgjsLinearGradient1100&quot;)"></path><path d="M505.20000000000005 250L755.2 0L827.2 0L577.2 250z" fill="url(&quot;#SvgjsLinearGradient1100&quot;)"></path><path d="M737.8000000000001 250L987.8000000000001 0L1089.8000000000002 0L839.8000000000001 250z" fill="url(&quot;#SvgjsLinearGradient1100&quot;)"></path><path d="M1394 250L1144 0L1024 0L1274 250z" fill="url(&quot;#SvgjsLinearGradient1101&quot;)"></path><path d="M1161.4 250L911.4000000000001 0L810.9000000000001 0L1060.9 250z" fill="url(&quot;#SvgjsLinearGradient1101&quot;)"></path><path d="M944.8 250L694.8 0L459.29999999999995 0L709.3 250z" fill="url(&quot;#SvgjsLinearGradient1101&quot;)"></path><path d="M719.1999999999999 250L469.19999999999993 0L193.19999999999993 0L443.19999999999993 250z" fill="url(&quot;#SvgjsLinearGradient1101&quot;)"></path><path d="M1233.4686653788256 250L1440 43.46866537882565L1440 250z" fill="url(&quot;#SvgjsLinearGradient1100&quot;)"></path><path d="M0 250L206.53133462117435 250L 0 43.46866537882565z" fill="url(&quot;#SvgjsLinearGradient1101&quot;)"></path></g><defs><mask id="SvgjsMask1099"><rect width="1440" height="250" fill="#ffffff"></rect></mask><linearGradient x1="0%" y1="100%" x2="100%" y2="0%" id="SvgjsLinearGradient1100"><stop stop-color="rgba(0, 142, 204, 0.73)" offset="0"></stop><stop stop-opacity="0" stop-color="rgba(0, 142, 204, 0.73)" offset="0.66"></stop></linearGradient><linearGradient x1="100%" y1="100%" x2="0%" y2="0%" id="SvgjsLinearGradient1101"><stop stop-color="rgba(0, 142, 204, 0.73)" offset="0"></stop><stop stop-opacity="0" stop-color="rgba(0, 142, 204, 0.73)" offset="0.66"></stop></linearGradient></defs></svg>