<?xml version="1.0" encoding="UTF-8"?>
<svg version="1.1" xmlns="http://www.w3.org/2000/svg" width="934" height="400">
<path d="M0 0 C1.50890351 1.40717968 3.01042627 2.82237451 4.5 4.25 C5.345625 5.054375 6.19125 5.85875 7.0625 6.6875 C8.2690625 7.9559375 8.2690625 7.9559375 9.5 9.25 C10.48033203 10.25546875 10.48033203 10.25546875 11.48046875 11.28125 C49.36787412 51.45102918 46.70608018 107.96751981 46.62857056 159.32578278 C46.6249606 162.02950649 46.62337304 164.73322484 46.62231445 167.43695068 C46.60855754 195.71897282 46.31190594 223.97827531 45.5 252.25 C33.62 252.25 21.74 252.25 9.5 252.25 C9.17 237.4 8.84 222.55 8.5 207.25 C6.19 209.6425 3.88 212.035 1.5 214.5 C-24.83889225 241.08793419 -61.65338496 258.93244347 -99.49609375 259.5234375 C-100.60982109 259.54222961 -100.60982109 259.54222961 -101.74604797 259.56140137 C-125.77031893 259.88783891 -148.1308434 257.65855661 -170.5 248.25 C-171.2002832 247.95754395 -171.90056641 247.66508789 -172.62207031 247.36376953 C-187.85011949 240.88206947 -200.99590827 232.06900739 -213.5 221.25 C-214.77810547 220.17298828 -214.77810547 220.17298828 -216.08203125 219.07421875 C-222.31939318 213.68000252 -227.48975724 207.78786669 -232.5 201.25 C-233.17933594 200.37472656 -233.85867188 199.49945313 -234.55859375 198.59765625 C-247.03300876 182.03805271 -255.59644006 163.34768934 -260.5 143.25 C-260.7477417 142.25105713 -260.7477417 142.25105713 -261.00048828 141.23193359 C-267.22970567 114.82700899 -264.79898339 85.61817078 -255.5 60.25 C-255.24734375 59.55664551 -254.9946875 58.86329102 -254.734375 58.14892578 C-241.09842554 21.44382407 -212.7172713 -8.46004265 -177.34375 -25.01171875 C-176.06362345 -25.59362366 -174.78239825 -26.17311869 -173.5 -26.75 C-172.3140625 -27.29269531 -171.128125 -27.83539063 -169.90625 -28.39453125 C-115.02738978 -51.95665058 -44.54499619 -39.52308593 0 0 Z M-197.9375 34.875 C-219.88910177 61.08511112 -229.11402601 90.57229833 -226.29785156 124.69970703 C-222.72162827 154.38236038 -205.36050043 180.66471004 -182.5 199.25 C-161.42299723 214.77045321 -136.5706733 223.70690036 -110.3125 223.5625 C-109.22316162 223.55686035 -108.13382324 223.5512207 -107.01147461 223.54541016 C-73.71656129 223.04909457 -44.8597529 208.57657143 -21.5 185.25 C-0.73486846 162.5020868 8.80885437 133.19025716 7.64794922 102.72949219 C5.86148102 72.78993606 -8.96812989 45.67540581 -30.88623047 25.65673828 C-48.08374485 10.66550108 -70.72742833 -0.23205712 -93.5 -2.75 C-94.40621094 -2.85828125 -95.31242188 -2.9665625 -96.24609375 -3.078125 C-133.94027998 -7.05143728 -172.23123476 6.78852502 -197.9375 34.875 Z " fill="#F4D0C4" transform="translate(887.5,140.75)"/>
<path d="M0 0 C13.2 0 26.4 0 40 0 C40 33.33 40 66.66 40 101 C96.1 101 152.2 101 210 101 C210 112.88 210 124.76 210 137 C153.9 137 97.8 137 40 137 C40.0825 162.53375 40.165 188.0675 40.25 214.375 C40.26579102 222.40763184 40.28158203 230.44026367 40.29785156 238.71630859 C40.33111215 245.97958181 40.33111215 245.97958181 40.36956787 253.24282837 C40.38642587 256.4529183 40.39243823 259.66282219 40.39154053 262.87295532 C39.74284975 292.58207576 39.74284975 292.58207576 48.6875 320.5 C49.1990564 321.4744104 49.1990564 321.4744104 49.72094727 322.46850586 C52.9857329 328.43135123 57.01687732 333.36913255 62 338 C63.02867188 338.96486328 63.02867188 338.96486328 64.078125 339.94921875 C79.55228633 353.15956759 101.77645857 356.0039361 121.41772461 354.60327148 C139.92759734 352.96701064 157.09083032 346.91702845 170 333 C184.21030372 315.42409803 185.71832465 294.78848098 187 273 C199.87 273 212.74 273 226 273 C226 295.20023524 226 295.20023524 224.8125 302.625 C224.6786792 303.49342529 224.5448584 304.36185059 224.40698242 305.2565918 C220.27612519 330.41684922 209.01333043 354.59644515 188.25390625 370.32275391 C184.29865118 373.11285314 180.19656158 375.59132264 176 378 C175.14792969 378.49113281 174.29585937 378.98226563 173.41796875 379.48828125 C143.54748679 395.488556 104.56865231 395.73732366 72.5 387.125 C58.31370247 382.73439912 45.42120755 376.53882334 34 367 C33.34515625 366.49082031 32.6903125 365.98164063 32.015625 365.45703125 C16.62231983 352.98845406 7.52701737 333.94163388 3 315 C2.75176326 314.03948479 2.50352652 313.07896957 2.24776745 312.08934784 C-0.74098769 298.78443816 -0.40927905 285.43603082 -0.34819686 271.86459613 C-0.33510025 268.20703929 -0.33963547 264.54949572 -0.34190369 260.891922 C-0.34346792 254.5728216 -0.33414843 248.25381497 -0.31719017 241.93473816 C-0.29268828 232.79871108 -0.28498353 223.6627288 -0.2812262 214.52667242 C-0.27467915 199.6998849 -0.25476569 184.87314722 -0.22631836 170.04638672 C-0.19873237 155.65348559 -0.17752108 141.26059805 -0.16479492 126.86767578 C-0.16400675 125.97876768 -0.16321858 125.08985958 -0.16240653 124.17401487 C-0.15849108 119.7141078 -0.15470004 115.25420063 -0.15097082 110.7942934 C-0.11992937 73.86282568 -0.06630911 36.93142001 0 0 Z " fill="#F4D0C4" transform="translate(0,8)"/>
<path d="M0 0 C34.65328138 -1.12992155 70.21343241 5.78859629 96.52490234 29.82421875 C116.57438986 48.99921966 125.79988705 74.93235644 129.03271484 102.015625 C129.11674561 102.69407471 129.20077637 103.37252441 129.28735352 104.0715332 C130.08577438 111.48346829 129.84521484 118.49076719 129.84521484 126.078125 C116.64521484 126.078125 103.44521484 126.078125 89.84521484 126.078125 C89.59771484 122.118125 89.35021484 118.158125 89.09521484 114.078125 C87.45001414 91.74168171 81.88836726 70.05964057 64.25146484 54.83984375 C43.03558427 38.65359004 16.99628488 35.52461123 -9.0234375 38.39453125 C-26.99287034 41.2305421 -44.37127485 48.87304927 -56.15478516 63.078125 C-69.50384248 81.44816591 -72.60937518 101.82148875 -72.5871582 123.85522461 C-72.5961967 125.68993277 -72.60652896 127.52463493 -72.61804199 129.35932922 C-72.64539313 134.29218434 -72.65486645 139.22492421 -72.66089606 144.15784526 C-72.67033727 149.3308261 -72.69654489 154.50372276 -72.72090149 159.676651 C-72.7644131 169.45094156 -72.79305398 179.22521564 -72.81622487 188.99957329 C-72.84335919 200.1363966 -72.88726533 211.27313458 -72.93251359 222.40989673 C-73.02514002 245.29927211 -73.09470777 268.18863945 -73.15478516 291.078125 C-86.68478516 291.078125 -100.21478516 291.078125 -114.15478516 291.078125 C-114.20008533 268.36287486 -114.23686311 245.6476618 -114.2584095 222.93237782 C-114.26868367 212.38320603 -114.28266939 201.83406448 -114.30566406 191.28491211 C-114.32571697 182.08088 -114.33852957 172.87686981 -114.34296215 163.67281646 C-114.34554956 158.80789484 -114.35154872 153.94303589 -114.36624527 149.07813454 C-114.49303093 105.34799608 -113.26886758 64.46123107 -81.46728516 31.015625 C-59.95841781 10.06500307 -29.45106909 1.06779312 0 0 Z " fill="#F4D0C4" transform="translate(478.15478515625,100.921875)"/>
<path d="M0 0 C13.2 0 26.4 0 40 0 C40 93.39 40 186.78 40 283 C26.8 283 13.6 283 0 283 C0 189.61 0 96.22 0 0 Z " fill="#F4D0C4" transform="translate(275,109)"/>
<path d="M0 0 C8.85938813 4.82777365 13.84508032 10.97274096 17 20.4375 C17.7478513 31.75594186 17.15739475 38.94354261 9.875 47.6875 C3.73462032 54.20852312 -3.61068635 57.46979496 -12.5625 57.75 C-21.41783124 57.61958275 -28.88963539 54.47024034 -35.27734375 48.37109375 C-42.15061565 40.65619672 -43.37903961 34.1710725 -43.2734375 23.98046875 C-42.62297015 15.55227031 -38.23909634 8.99733988 -32 3.4375 C-22.96309708 -2.31023605 -10.12505099 -4.15659988 0 0 Z " fill="#F4D0C4" transform="translate(308,1.5625)"/>
</svg>
