<?xml version="1.0" encoding="UTF-8"?>
<svg version="1.1" xmlns="http://www.w3.org/2000/svg" width="2916" height="2916">
<path d="M0 0 C0.94681641 0.46067871 1.89363281 0.92135742 2.86914062 1.39599609 C29.68440525 14.49052631 54.18137563 31.25441787 76.54296875 50.97265625 C80.367998 54.34199988 84.30776791 57.55876191 88.26953125 60.765625 C91.31966573 63.26158626 94.31584992 65.81539871 97.3125 68.375 C101.74841723 72.15803446 106.26601262 75.80533216 110.875 79.375 C116.62027155 83.83051671 122.13095441 88.51143405 127.60058594 93.29980469 C132.07760385 97.21631957 136.63542937 101.01327067 141.2578125 104.7578125 C144.37000148 107.30253683 147.43726497 109.89618225 150.5 112.5 C155.35305925 116.62417502 160.25813293 120.67665804 165.19921875 124.6953125 C168.26775787 127.22033075 171.29039812 129.79484769 174.3125 132.375 C178.74851603 136.15792492 183.26600643 139.80532737 187.875 143.375 C193.62027155 147.83051671 199.13095441 152.51143405 204.60058594 157.29980469 C209.07760385 161.21631957 213.63542937 165.01327067 218.2578125 168.7578125 C221.37000148 171.30253683 224.43726497 173.89618225 227.5 176.5 C231.46899152 179.87288602 235.4601718 183.21176774 239.5 186.5 C243.53983452 189.7882374 247.53083277 193.12731461 251.5 196.5 C257.27542544 201.40545844 263.11992099 206.22028665 269 211 C275.44532718 216.23918408 281.83422912 221.53539575 288.16357422 226.91357422 C291.58020732 229.81219839 295.02486997 232.67140579 298.5 235.5 C303.1045358 239.24787798 307.64019191 243.06983444 312.1640625 246.9140625 C315.5805954 249.81244823 319.02504838 252.671551 322.5 255.5 C326.53983452 258.7882374 330.53083277 262.12731461 334.5 265.5 C340.27542544 270.40545844 346.11992099 275.22028665 352 280 C358.44532718 285.23918408 364.83422912 290.53539575 371.16357422 295.91357422 C375.45214741 299.55194028 379.79558474 303.11797414 384.1640625 306.66015625 C386.26681523 308.39507207 388.33951418 310.14807602 390.3984375 311.93359375 C390.97658203 312.43246094 391.55472656 312.93132812 392.15039062 313.4453125 C393.27111948 314.41500316 394.3872921 315.38999387 395.49804688 316.37109375 C399.76759203 320.15858285 399.76759203 320.15858285 405 322 C407.44597595 320.58108113 409.26463971 319.26298412 411.375 317.4375 C412.28149292 316.68944092 412.28149292 316.68944092 413.20629883 315.92626953 C415.15648656 314.30524962 417.0803265 312.65700657 419 311 C419.6388916 310.4519873 420.2777832 309.90397461 420.93603516 309.33935547 C424.12892263 306.59623882 427.30567559 303.8354647 430.47265625 301.0625 C434.32777225 297.69743234 438.2818135 294.46310064 442.2578125 291.2421875 C445.37000435 288.69746083 448.43717484 286.10371492 451.5 283.5 C456.26900729 279.44975322 461.07912749 275.45647629 465.9296875 271.50390625 C475.50861889 263.69208052 485.05229952 255.84027163 494.46826172 247.83251953 C498.66328182 244.26971596 502.91914278 240.78674425 507.1875 237.3125 C510.31799851 234.73853455 513.41165634 232.12423097 516.5 229.5 C523.15033651 223.85142056 529.90121006 218.33176492 536.671875 212.828125 C542.22044283 208.30588185 547.70914795 203.72116721 553.16357422 199.08642578 C557.46111625 195.44045068 561.81657801 191.8702272 566.1875 188.3125 C569.31799912 185.73853406 572.4116341 183.12420534 575.5 180.5 C580.2691121 176.44987401 585.07912432 172.45647887 589.9296875 168.50390625 C599.50861889 160.69208052 609.05229952 152.84027163 618.46826172 144.83251953 C622.66328182 141.26971596 626.91914278 137.78674425 631.1875 134.3125 C634.31799851 131.73853455 637.41165634 129.12423097 640.5 126.5 C647.15033651 120.85142056 653.90121006 115.33176492 660.671875 109.828125 C666.22044283 105.30588185 671.70914795 100.72116721 677.16357422 96.08642578 C681.46111625 92.44045068 685.81657801 88.8702272 690.1875 85.3125 C693.31799912 82.73853406 696.4116341 80.12420534 699.5 77.5 C704.27407847 73.44565636 709.08879615 69.44778488 713.9453125 65.4921875 C716.95770709 63.03450496 719.96137243 60.56660699 722.96191406 58.09448242 C724.41369142 56.8984866 725.86617513 55.70334772 727.31933594 54.5090332 C730.98590178 51.49375463 734.64111263 48.46662474 738.2734375 45.41015625 C807.13907239 -12.3517103 894.02100324 -37.71499089 983.1640625 -30.359375 C1043.27248516 -24.72803601 1102.67000244 -1.60809559 1150 36 C1150.66870117 36.53125488 1151.33740234 37.06250977 1152.02636719 37.60986328 C1159.59658348 43.65275524 1167.04347823 49.83857107 1174.41870117 56.11743164 C1177.74829305 58.95087342 1181.10909555 61.74030287 1184.5 64.5 C1188.53983543 67.78823814 1192.53080427 71.12734761 1196.5 74.5 C1201.2691121 78.55012599 1206.07912432 82.54352113 1210.9296875 86.49609375 C1220.50861889 94.30791948 1230.05229952 102.15972837 1239.46826172 110.16748047 C1243.66328182 113.73028404 1247.91914278 117.21325575 1252.1875 120.6875 C1255.31799912 123.26146594 1258.4116341 125.87579466 1261.5 128.5 C1266.2691121 132.55012599 1271.07912432 136.54352113 1275.9296875 140.49609375 C1285.50861889 148.30791948 1295.05229952 156.15972837 1304.46826172 164.16748047 C1308.66328182 167.73028404 1312.91914278 171.21325575 1317.1875 174.6875 C1320.31799912 177.26146594 1323.4116341 179.87579466 1326.5 182.5 C1331.2691121 186.55012599 1336.07912432 190.54352113 1340.9296875 194.49609375 C1350.50861889 202.30791948 1360.05229952 210.15972837 1369.46826172 218.16748047 C1373.66328182 221.73028404 1377.91914278 225.21325575 1382.1875 228.6875 C1385.31799912 231.26146594 1388.4116341 233.87579466 1391.5 236.5 C1396.2691121 240.55012599 1401.07912432 244.54352113 1405.9296875 248.49609375 C1415.50435718 256.30444396 1425.05035106 264.1460732 1434.45507812 272.15869141 C1437.88622249 275.07689921 1441.36763811 277.92409565 1444.875 280.75 C1448.54345989 283.73360992 1451.94718474 286.812622 1455.22045898 290.22143555 C1456.98213787 291.98214768 1458.809155 293.59810494 1460.703125 295.21484375 C1465.00209463 298.95196296 1469.04757918 302.89921397 1473.0625 306.9375 C1473.73087891 307.60201172 1474.39925781 308.26652344 1475.08789062 308.95117188 C1479.59769332 313.46973998 1483.83541074 318.16388068 1488 323 C1489.02175905 324.15643308 1490.04514706 325.31142933 1491.0703125 326.46484375 C1499.17360189 335.64673246 1506.69785666 345.17238582 1514 355 C1514.53625 355.71526855 1515.0725 356.43053711 1515.625 357.16748047 C1528.14018234 373.89826359 1539.07811448 391.62117812 1549 410 C1549.45197754 410.83160645 1549.90395508 411.66321289 1550.36962891 412.52001953 C1563.17611593 436.18743378 1573.43574694 460.4966671 1582 486 C1582.53536377 487.5780542 1582.53536377 487.5780542 1583.08154297 489.18798828 C1591.47732023 514.20180469 1597.10681149 540.02947606 1600.875 566.125 C1601.0213942 567.12199417 1601.0213942 567.12199417 1601.17074585 568.13912964 C1604.40357747 590.52292541 1605.29899614 612.9774586 1605.25396729 635.56518555 C1605.25627835 638.1347217 1605.25945916 640.70425718 1605.26342177 643.27379131 C1605.27056492 648.80818473 1605.27047631 654.34253896 1605.26532745 659.87693405 C1605.2576915 668.107448 1605.26166635 676.33792953 1605.26774407 684.56844333 C1605.27822294 699.27706737 1605.27738388 713.98567394 1605.27158624 728.69429961 C1605.26653782 741.56673993 1605.26524976 754.43917388 1605.26763153 767.31161499 C1605.2677843 768.16836221 1605.26793707 769.02510944 1605.26809447 769.9078187 C1605.26871724 773.38639349 1605.26935405 776.86496828 1605.270014 780.34354306 C1605.27612007 812.9174447 1605.27060405 845.49133526 1605.2598202 878.06523518 C1605.25033033 906.95007157 1605.25117964 935.83489032 1605.26074219 964.71972656 C1605.27147165 997.2373637 1605.27568688 1029.75499107 1605.26951766 1062.27262974 C1605.26887631 1065.74454816 1605.26825062 1069.21646658 1605.26763153 1072.68838501 C1605.26747338 1073.5431426 1605.26731522 1074.39790019 1605.26715227 1075.27855953 C1605.26488565 1088.13699282 1605.26752228 1100.99541901 1605.27259064 1113.85385132 C1605.27833016 1128.48721421 1605.27683497 1143.12055704 1605.26602915 1157.75391746 C1605.26019309 1165.92476719 1605.25971985 1174.09557336 1605.2673215 1182.26642188 C1605.27238925 1188.39394221 1605.2668219 1194.52141221 1605.25737235 1200.64892638 C1605.25516104 1203.10754506 1605.25622265 1205.56616966 1605.26112393 1208.02478445 C1605.30003347 1229.18686281 1604.2688917 1250.28520595 1601.25 1271.25 C1601.08153564 1272.43634033 1600.91307129 1273.62268066 1600.73950195 1274.8449707 C1593.16161161 1326.29698965 1577.16033073 1374.54519012 1554 1421 C1553.57219238 1421.85964355 1553.14438477 1422.71928711 1552.70361328 1423.60498047 C1530.84850986 1467.16781057 1500.09845398 1505.91739571 1465.8125 1540.3125 C1465.33887024 1540.78880859 1464.86524048 1541.26511719 1464.3772583 1541.75585938 C1458.76130785 1547.39587714 1453.06441775 1552.84569425 1447 1558 C1445.88196089 1558.97298062 1444.76474381 1559.94690681 1443.6484375 1560.921875 C1437.89290692 1565.90571433 1432.08407008 1570.7774544 1426.0625 1575.4375 C1420.33563747 1579.87031574 1414.84738413 1584.53034133 1409.39916992 1589.30004883 C1404.92220304 1593.21644597 1400.36448107 1597.01334323 1395.7421875 1600.7578125 C1392.62999852 1603.30253683 1389.56273503 1605.89618225 1386.5 1608.5 C1381.65051278 1612.62113948 1376.74838877 1616.66991612 1371.8125 1620.6875 C1368.68200088 1623.26146594 1365.5883659 1625.87579466 1362.5 1628.5 C1357.7308879 1632.55012599 1352.92087568 1636.54352113 1348.0703125 1640.49609375 C1338.49138111 1648.30791948 1328.94770048 1656.15972837 1319.53173828 1664.16748047 C1315.33671818 1667.73028404 1311.08085722 1671.21325575 1306.8125 1674.6875 C1303.68200334 1677.26146392 1300.58827539 1679.87569086 1297.5 1682.5 C1292.65040619 1686.62101634 1287.74839194 1690.66991354 1282.8125 1694.6875 C1279.68200088 1697.26146594 1276.5883659 1699.87579466 1273.5 1702.5 C1268.7308879 1706.55012599 1263.92087568 1710.54352113 1259.0703125 1714.49609375 C1249.49138111 1722.30791948 1239.94770048 1730.15972837 1230.53173828 1738.16748047 C1226.33671818 1741.73028404 1222.08085722 1745.21325575 1217.8125 1748.6875 C1214.68200334 1751.26146392 1211.58827539 1753.87569086 1208.5 1756.5 C1203.65040619 1760.62101634 1198.74839194 1764.66991354 1193.8125 1768.6875 C1190.68200149 1771.26146545 1187.58834366 1773.87576903 1184.5 1776.5 C1177.84966349 1782.14857944 1171.09878994 1787.66823508 1164.328125 1793.171875 C1158.77955717 1797.69411815 1153.29085205 1802.27883279 1147.83642578 1806.91357422 C1143.53888375 1810.55954932 1139.18342199 1814.1297728 1134.8125 1817.6875 C1131.68200334 1820.26146392 1128.58827539 1822.87569086 1125.5 1825.5 C1120.65040619 1829.62101634 1115.74839194 1833.66991354 1110.8125 1837.6875 C1107.68200088 1840.26146594 1104.5883659 1842.87579466 1101.5 1845.5 C1096.7308879 1849.55012599 1091.92087568 1853.54352113 1087.0703125 1857.49609375 C1077.49138111 1865.30791948 1067.94770048 1873.15972837 1058.53173828 1881.16748047 C1054.33671818 1884.73028404 1050.08085722 1888.21325575 1045.8125 1891.6875 C1042.68200334 1894.26146392 1039.58827539 1896.87569086 1036.5 1899.5 C1031.65040619 1903.62101634 1026.74839194 1907.66991354 1021.8125 1911.6875 C1018.68200149 1914.26146545 1015.58834366 1916.87576903 1012.5 1919.5 C1005.84966349 1925.14857944 999.09878994 1930.66823508 992.328125 1936.171875 C986.77955717 1940.69411815 981.29085205 1945.27883279 975.83642578 1949.91357422 C971.53888375 1953.55954932 967.18342199 1957.1297728 962.8125 1960.6875 C959.68200334 1963.26146392 956.58827539 1965.87569086 953.5 1968.5 C948.65040619 1972.62101634 943.74839194 1976.66991354 938.8125 1980.6875 C935.68200088 1983.26146594 932.5883659 1985.87579466 929.5 1988.5 C924.7308879 1992.55012599 919.92087568 1996.54352113 915.0703125 2000.49609375 C905.49138111 2008.30791948 895.94770048 2016.15972837 886.53173828 2024.16748047 C882.33671818 2027.73028404 878.08085722 2031.21325575 873.8125 2034.6875 C870.68200334 2037.26146392 867.58827539 2039.87569086 864.5 2042.5 C859.65040619 2046.62101634 854.74839194 2050.66991354 849.8125 2054.6875 C846.68200149 2057.26146545 843.58834366 2059.87576903 840.5 2062.5 C833.84966349 2068.14857944 827.09878994 2073.66823508 820.328125 2079.171875 C814.77955717 2083.69411815 809.29085205 2088.27883279 803.83642578 2092.91357422 C799.53888375 2096.55954932 795.18342199 2100.1297728 790.8125 2103.6875 C787.68200334 2106.26146392 784.58827539 2108.87569086 781.5 2111.5 C776.65040619 2115.62101634 771.74839194 2119.66991354 766.8125 2123.6875 C763.68200088 2126.26146594 760.5883659 2128.87579466 757.5 2131.5 C752.7308879 2135.55012599 747.92087568 2139.54352113 743.0703125 2143.49609375 C734.03220966 2150.86686209 725.01254752 2158.26050555 716.125 2165.8125 C710.4735867 2170.61326506 704.76237107 2175.33301942 699 2180 C698.45682129 2180.44424316 697.91364258 2180.88848633 697.35400391 2181.34619141 C630.8837502 2235.69704401 550.85322448 2269.66060184 466.06427002 2281.70574951 C464.15111727 2281.97845905 462.23930915 2282.26055696 460.32763672 2282.54345703 C422.28273265 2287.95541047 381.02025241 2287.53094725 343 2282 C342.00006012 2281.85788086 342.00006012 2281.85788086 340.97991943 2281.71289062 C264.94500001 2270.87068979 189.68871389 2242.67702468 128.72705078 2195.33007812 C126.12069402 2193.32280761 123.46272374 2191.38629555 120.8125 2189.4375 C115.40526602 2185.38573795 110.26639346 2181.06806045 105.13671875 2176.67578125 C101.49597578 2173.55909299 97.78547654 2170.53127753 94.0703125 2167.50390625 C84.49138111 2159.69208052 74.94770048 2151.84027163 65.53173828 2143.83251953 C61.33671818 2140.26971596 57.08085722 2136.78674425 52.8125 2133.3125 C49.11985636 2130.27632634 45.47878212 2127.1815003 41.8359375 2124.0859375 C38.4194046 2121.18755177 34.97495162 2118.328449 31.5 2115.5 C27.46016457 2112.21176186 23.46919573 2108.87265239 19.5 2105.5 C14.7308879 2101.44987401 9.92087568 2097.45647887 5.0703125 2093.50390625 C-4.50861889 2085.69208052 -14.05229952 2077.84027163 -23.46826172 2069.83251953 C-27.66328182 2066.26971596 -31.91914278 2062.78674425 -36.1875 2059.3125 C-39.88014364 2056.27632634 -43.52121788 2053.1815003 -47.1640625 2050.0859375 C-50.5805954 2047.18755177 -54.02504838 2044.328449 -57.5 2041.5 C-61.53983452 2038.2117626 -65.53083277 2034.87268539 -69.5 2031.5 C-75.27542544 2026.59454156 -81.11992099 2021.77971335 -87 2017 C-93.44532718 2011.76081592 -99.83422912 2006.46460425 -106.16357422 2001.08642578 C-109.58020732 1998.18780161 -113.02486997 1995.32859421 -116.5 1992.5 C-121.1045358 1988.75212202 -125.64019191 1984.93016556 -130.1640625 1981.0859375 C-133.5805954 1978.18755177 -137.02504838 1975.328449 -140.5 1972.5 C-144.53983543 1969.21176186 -148.53080427 1965.87265239 -152.5 1962.5 C-157.2691121 1958.44987401 -162.07912432 1954.45647887 -166.9296875 1950.50390625 C-176.50861889 1942.69208052 -186.05229952 1934.84027163 -195.46826172 1926.83251953 C-199.66328182 1923.26971596 -203.91914278 1919.78674425 -208.1875 1916.3125 C-211.88014364 1913.27632634 -215.52121788 1910.1815003 -219.1640625 1907.0859375 C-222.5805954 1904.18755177 -226.02504838 1901.328449 -229.5 1898.5 C-233.53983452 1895.2117626 -237.53083277 1891.87268539 -241.5 1888.5 C-247.27542544 1883.59454156 -253.11992099 1878.77971335 -259 1874 C-265.44532718 1868.76081592 -271.83422912 1863.46460425 -278.16357422 1858.08642578 C-281.58020732 1855.18780161 -285.02486997 1852.32859421 -288.5 1849.5 C-293.1045358 1845.75212202 -297.64019191 1841.93016556 -302.1640625 1838.0859375 C-305.5805954 1835.18755177 -309.02504838 1832.328449 -312.5 1829.5 C-316.53983543 1826.21176186 -320.53080427 1822.87265239 -324.5 1819.5 C-329.2691121 1815.44987401 -334.07912432 1811.45647887 -338.9296875 1807.50390625 C-348.50861889 1799.69208052 -358.05229952 1791.84027163 -367.46826172 1783.83251953 C-371.66328182 1780.26971596 -375.91914278 1776.78674425 -380.1875 1773.3125 C-383.88014364 1770.27632634 -387.52121788 1767.1815003 -391.1640625 1764.0859375 C-394.5805954 1761.18755177 -398.02504838 1758.328449 -401.5 1755.5 C-405.53983452 1752.2117626 -409.53083277 1748.87268539 -413.5 1745.5 C-419.27542544 1740.59454156 -425.11992099 1735.77971335 -431 1731 C-437.44532718 1725.76081592 -443.83422912 1720.46460425 -450.16357422 1715.08642578 C-453.58020732 1712.18780161 -457.02486997 1709.32859421 -460.5 1706.5 C-465.1045358 1702.75212202 -469.64019191 1698.93016556 -474.1640625 1695.0859375 C-477.5805954 1692.18755177 -481.02504838 1689.328449 -484.5 1686.5 C-488.53983543 1683.21176186 -492.53080427 1679.87265239 -496.5 1676.5 C-501.2691121 1672.44987401 -506.07912432 1668.45647887 -510.9296875 1664.50390625 C-520.50861889 1656.69208052 -530.05229952 1648.84027163 -539.46826172 1640.83251953 C-543.66328182 1637.26971596 -547.91914278 1633.78674425 -552.1875 1630.3125 C-555.88014364 1627.27632634 -559.52121788 1624.1815003 -563.1640625 1621.0859375 C-566.5805954 1618.18755177 -570.02504838 1615.328449 -573.5 1612.5 C-577.53983452 1609.2117626 -581.53083277 1605.87268539 -585.5 1602.5 C-591.27542544 1597.59454156 -597.11992099 1592.77971335 -603 1588 C-609.44563728 1582.76056385 -615.83799513 1577.46756182 -622.16357422 1572.08422852 C-625.56906544 1569.19152743 -629.01703122 1566.3620374 -632.5 1563.5625 C-638.35020353 1558.79755161 -643.84406984 1553.69097933 -649.34716797 1548.53515625 C-650.95848223 1547.03856185 -652.58652475 1545.56313248 -654.22265625 1544.09375 C-662.64497152 1536.50189396 -670.36990733 1528.3818141 -678 1520 C-678.84691406 1519.07960938 -679.69382812 1518.15921875 -680.56640625 1517.2109375 C-695.86087004 1500.453525 -709.86218062 1482.16715994 -722 1463 C-722.49032715 1462.23284668 -722.9806543 1461.46569336 -723.48583984 1460.67529297 C-757.53511743 1407.26199339 -780.74908735 1348.21582627 -791.375 1285.75 C-791.49056244 1285.08694855 -791.60612488 1284.42389709 -791.72518921 1283.74075317 C-792.62328981 1278.51043645 -793.31964464 1273.26248339 -794 1268 C-794.12501396 1267.07524652 -794.25002793 1266.15049303 -794.37883019 1265.19771671 C-797.98669282 1237.43106674 -797.43318328 1209.47137481 -797.39500411 1181.5286407 C-797.38523392 1173.91708863 -797.39331134 1166.30557767 -797.4016161 1158.69402754 C-797.41730941 1143.78643874 -797.41608598 1128.87888881 -797.40737936 1113.97129643 C-797.39979802 1100.92450436 -797.39787864 1087.87772644 -797.4014473 1074.83093262 C-797.40167645 1073.96160511 -797.40190561 1073.09227761 -797.40214171 1072.19660684 C-797.4030759 1068.66669791 -797.40403112 1065.13678898 -797.405021 1061.60688005 C-797.41417417 1028.5717371 -797.40591557 995.53661872 -797.38973031 962.50147957 C-797.37549615 933.22623362 -797.37677015 903.95102685 -797.39111328 874.67578125 C-797.40721758 841.69658433 -797.41352473 808.71740908 -797.40427649 775.73820877 C-797.40331451 772.21516165 -797.40237597 768.69211452 -797.4014473 765.16906738 C-797.40121006 764.30176183 -797.40097283 763.43445627 -797.40072841 762.54086873 C-797.39733262 749.51027205 -797.40127558 736.47969117 -797.40888596 723.44909668 C-797.41750679 708.61548568 -797.41522827 693.78191924 -797.39904372 678.94831371 C-797.39107061 671.39390849 -797.38767272 663.83957591 -797.39799118 656.28517151 C-797.53678789 547.6258591 -773.2044405 445.39383826 -703 351 C-702.59104492 350.46632813 -702.18208984 349.93265625 -701.76074219 349.3828125 C-684.0849415 326.32857509 -664.23962133 303.75726069 -642 285 C-640.89164708 284.03045145 -639.78505833 283.05888453 -638.6796875 282.0859375 C-632.02477314 276.24196003 -625.28640515 270.58375734 -618.27758789 265.16943359 C-613.16020943 261.18933037 -608.27564846 256.96917259 -603.39892578 252.69970703 C-598.92338335 248.78462908 -594.36752769 244.98856254 -589.74609375 241.24609375 C-586.61010527 238.68109606 -583.52244685 236.0634254 -580.4375 233.4375 C-575.88725677 229.56746831 -571.2716668 225.80039718 -566.58984375 222.08984375 C-562.96869031 219.16779685 -559.43045431 216.15178514 -555.88671875 213.13671875 C-551.57534434 209.47306256 -547.20498127 205.88731372 -542.81640625 202.31640625 C-539.66214808 199.72212734 -536.5479702 197.08393735 -533.4375 194.4375 C-528.88715684 190.56758198 -524.27167165 186.80040103 -519.58984375 183.08984375 C-515.96869031 180.16779685 -512.43045431 177.15178514 -508.88671875 174.13671875 C-504.57534434 170.47306256 -500.20498127 166.88731372 -495.81640625 163.31640625 C-492.66214808 160.72212734 -489.5479702 158.08393735 -486.4375 155.4375 C-481.88715684 151.56758198 -477.27167165 147.80040103 -472.58984375 144.08984375 C-468.96869031 141.16779685 -465.43045431 138.15178514 -461.88671875 135.13671875 C-457.57534434 131.47306256 -453.20498127 127.88731372 -448.81640625 124.31640625 C-445.66214808 121.72212734 -442.5479702 119.08393735 -439.4375 116.4375 C-434.88715684 112.56758198 -430.27167165 108.80040103 -425.58984375 105.08984375 C-422.53918025 102.62814696 -419.54855054 100.10186318 -416.5625 97.5625 C-411.77332742 93.49031514 -406.94383037 89.47518393 -402.0703125 85.50390625 C-392.48848079 77.68971525 -382.94429692 69.83306826 -373.52294922 61.82592773 C-369.40407691 58.32958583 -365.23916891 54.89516656 -361.04296875 51.4921875 C-358.75682942 49.61984232 -356.49271414 47.7301223 -354.23828125 45.8203125 C-339.15204544 33.10400027 -323.18401103 21.71096437 -306 12 C-305.19369141 11.53883789 -304.38738281 11.07767578 -303.55664062 10.60253906 C-290.40037932 3.10766374 -277.08784783 -3.44842178 -263 -9 C-262.12939941 -9.34514648 -261.25879883 -9.69029297 -260.36181641 -10.04589844 C-231.54738208 -21.33424589 -200.87687797 -28.59269906 -170 -31 C-169.28650391 -31.05639648 -168.57300781 -31.11279297 -167.83789062 -31.17089844 C-110.8029664 -35.45485497 -51.39738577 -25.62869644 0 0 Z M-264 256 C-265.03359227 256.8727061 -266.06746517 257.74507992 -267.1015625 258.6171875 C-268.77295884 260.0289782 -270.44305056 261.4422177 -272.11010742 262.85913086 C-278.22301514 268.05469771 -284.44676928 273.11170134 -290.671875 278.171875 C-295.65597626 282.23406158 -300.59938022 286.33785938 -305.5 290.5 C-310.26921695 294.55000511 -315.07912116 298.54351856 -319.9296875 302.49609375 C-329.50861889 310.30791948 -339.05229952 318.15972837 -348.46826172 326.16748047 C-352.66188996 329.72910195 -356.91608422 333.21119517 -361.18359375 336.68359375 C-364.33785192 339.27787266 -367.4520298 341.91606265 -370.5625 344.5625 C-375.11284316 348.43241802 -379.72832835 352.19959897 -384.41015625 355.91015625 C-387.46081975 358.37185304 -390.45144946 360.89813682 -393.4375 363.4375 C-398.22667258 367.50968486 -403.05616963 371.52481607 -407.9296875 375.49609375 C-417.50861889 383.30791948 -427.05229952 391.15972837 -436.46826172 399.16748047 C-439.78266968 401.98238581 -443.12782274 404.75463955 -446.5 407.5 C-455.48091885 414.81584338 -464.37234069 422.26974321 -473 430 C-473.97453125 430.87011719 -474.9490625 431.74023438 -475.953125 432.63671875 C-483.77221655 439.69061766 -491.02476514 447.1139179 -498 455 C-498.45584473 455.51111328 -498.91168945 456.02222656 -499.38134766 456.54882812 C-562.57203366 527.76625474 -579.36071194 615.59713547 -579.26144934 707.7318548 C-579.25687583 714.02573908 -579.26393257 720.31961278 -579.26940918 726.61349487 C-579.27774397 738.19830887 -579.27708504 749.78309615 -579.27158624 761.36791076 C-579.26653002 772.07450416 -579.26525334 782.7810899 -579.26763153 793.48768425 C-579.2677843 794.20135515 -579.26793707 794.91502605 -579.26809447 795.65032334 C-579.26871727 798.54824869 -579.26935409 801.44617404 -579.270014 804.34409938 C-579.27611452 831.45812203 -579.2706128 858.57213138 -579.2598202 885.68615198 C-579.25032992 909.71094113 -579.25118114 933.73570908 -579.26074219 957.76049805 C-579.27147941 984.83042743 -579.27568267 1011.90034508 -579.26951766 1038.9702763 C-579.26887634 1041.86222803 -579.26825066 1044.75417977 -579.26763153 1047.64613152 C-579.26747338 1048.35806418 -579.26731522 1049.06999685 -579.26715227 1049.80350324 C-579.26488894 1060.49714935 -579.26751604 1071.19078691 -579.27259064 1081.88443184 C-579.27833898 1094.05761687 -579.27662622 1106.23077056 -579.26602915 1118.40395398 C-579.26080895 1124.60279852 -579.25865264 1130.80160028 -579.26532745 1137.00044441 C-579.32461623 1197.24084886 -574.40799959 1256.22632978 -547 1311 C-546.52336914 1311.96808594 -546.04673828 1312.93617187 -545.55566406 1313.93359375 C-533.47364162 1338.35681136 -518.98934157 1362.78745193 -500.16015625 1382.69921875 C-498.35347788 1384.6235109 -496.6354265 1386.58325274 -494.91796875 1388.5859375 C-490.70112511 1393.42196324 -486.21297899 1397.97310102 -481.67675781 1402.50854492 C-480.26080053 1403.92668284 -478.85301711 1405.35296665 -477.4453125 1406.77929688 C-471.2740811 1412.96342082 -464.82158485 1418.55088807 -458 1424 C-455.64663812 1425.97713439 -453.32234628 1427.98659775 -451 1430 C-445.98816245 1434.32083327 -440.91457426 1438.55101386 -435.77734375 1442.72265625 C-432.65603433 1445.28204217 -429.57556761 1447.88601545 -426.5 1450.5 C-420.72463851 1455.40553208 -414.88007702 1460.22028827 -409 1465 C-402.55467282 1470.23918408 -396.16577088 1475.53539575 -389.83642578 1480.91357422 C-386.41979268 1483.81219839 -382.97513003 1486.67140579 -379.5 1489.5 C-374.8954642 1493.24787798 -370.35980809 1497.06983444 -365.8359375 1500.9140625 C-362.4194046 1503.81244823 -358.97495162 1506.671551 -355.5 1509.5 C-351.46016548 1512.7882374 -347.46916723 1516.12731461 -343.5 1519.5 C-337.72457456 1524.40545844 -331.88007901 1529.22028665 -326 1534 C-319.55467282 1539.23918408 -313.16577088 1544.53539575 -306.83642578 1549.91357422 C-303.41979268 1552.81219839 -299.97513003 1555.67140579 -296.5 1558.5 C-291.8954642 1562.24787798 -287.35980809 1566.06983444 -282.8359375 1569.9140625 C-279.4194046 1572.81244823 -275.97495162 1575.671551 -272.5 1578.5 C-268.46016457 1581.78823814 -264.46919573 1585.12734761 -260.5 1588.5 C-255.7308879 1592.55012599 -250.92087568 1596.54352113 -246.0703125 1600.49609375 C-236.49138111 1608.30791948 -226.94770048 1616.15972837 -217.53173828 1624.16748047 C-213.33671818 1627.73028404 -209.08085722 1631.21325575 -204.8125 1634.6875 C-201.11985636 1637.72367366 -197.47878212 1640.8184997 -193.8359375 1643.9140625 C-190.4194046 1646.81244823 -186.97495162 1649.671551 -183.5 1652.5 C-179.46016548 1655.7882374 -175.46916723 1659.12731461 -171.5 1662.5 C-165.72457456 1667.40545844 -159.88007901 1672.22028665 -154 1677 C-147.55467282 1682.23918408 -141.16577088 1687.53539575 -134.83642578 1692.91357422 C-131.41979268 1695.81219839 -127.97513003 1698.67140579 -124.5 1701.5 C-119.8954642 1705.24787798 -115.35980809 1709.06983444 -110.8359375 1712.9140625 C-107.4194046 1715.81244823 -103.97495162 1718.671551 -100.5 1721.5 C-96.46016548 1724.7882374 -92.46916723 1728.12731461 -88.5 1731.5 C-82.72457456 1736.40545844 -76.88007901 1741.22028665 -71 1746 C-64.55467282 1751.23918408 -58.16577088 1756.53539575 -51.83642578 1761.91357422 C-48.41979268 1764.81219839 -44.97513003 1767.67140579 -41.5 1770.5 C-36.8954642 1774.24787798 -32.35980809 1778.06983444 -27.8359375 1781.9140625 C-24.4194046 1784.81244823 -20.97495162 1787.671551 -17.5 1790.5 C-13.46016457 1793.78823814 -9.46919573 1797.12734761 -5.5 1800.5 C-0.7308879 1804.55012599 4.07912432 1808.54352113 8.9296875 1812.49609375 C18.50861889 1820.30791948 28.05229952 1828.15972837 37.46826172 1836.16748047 C41.66328182 1839.73028404 45.91914278 1843.21325575 50.1875 1846.6875 C53.88014364 1849.72367366 57.52121788 1852.8184997 61.1640625 1855.9140625 C64.5805954 1858.81244823 68.02504838 1861.671551 71.5 1864.5 C75.53983452 1867.7882374 79.53083277 1871.12731461 83.5 1874.5 C89.27542544 1879.40545844 95.11992099 1884.22028665 101 1889 C107.44532718 1894.23918408 113.83422912 1899.53539575 120.16357422 1904.91357422 C123.58020732 1907.81219839 127.02486997 1910.67140579 130.5 1913.5 C135.1045358 1917.24787798 139.64019191 1921.06983444 144.1640625 1924.9140625 C147.5805954 1927.81244823 151.02504838 1930.671551 154.5 1933.5 C158.53983452 1936.7882374 162.53083277 1940.12731461 166.5 1943.5 C172.27548429 1948.40550842 178.12253117 1953.21701583 184 1958 C185.75009206 1959.43738792 187.50009043 1960.87488992 189.25 1962.3125 C190.16523437 1963.05757812 191.08046875 1963.80265625 192.0234375 1964.5703125 C194.12217269 1966.2834533 196.20870712 1968.00714938 198.2890625 1969.7421875 C255.53834208 2017.03645347 329.12737267 2042.2040311 403.0625 2042.25 C404.52789215 2042.25101212 404.52789215 2042.25101212 406.02288818 2042.25204468 C421.87560482 2042.23469964 437.32416736 2041.5503036 453 2039 C454.0513916 2038.83371094 455.1027832 2038.66742187 456.18603516 2038.49609375 C512.7238419 2029.29325558 567.25536757 2005.14966018 611 1968 C613.0464038 1966.31112275 615.0987656 1964.62963386 617.15112305 1962.94799805 C623.63737393 1957.63096705 630.07931185 1952.26596602 636.46826172 1946.83251953 C640.66328182 1943.26971596 644.91914278 1939.78674425 649.1875 1936.3125 C652.31799666 1933.73853608 655.41172461 1931.12430914 658.5 1928.5 C663.34959381 1924.37898366 668.25160806 1920.33008646 673.1875 1916.3125 C676.31799851 1913.73853455 679.41165634 1911.12423097 682.5 1908.5 C689.15033651 1902.85142056 695.90121006 1897.33176492 702.671875 1891.828125 C708.22044283 1887.30588185 713.70914795 1882.72116721 719.16357422 1878.08642578 C723.46111625 1874.44045068 727.81657801 1870.8702272 732.1875 1867.3125 C735.31799666 1864.73853608 738.41172461 1862.12430914 741.5 1859.5 C746.34959381 1855.37898366 751.25160806 1851.33008646 756.1875 1847.3125 C759.31799912 1844.73853406 762.4116341 1842.12420534 765.5 1839.5 C770.2691121 1835.44987401 775.07912432 1831.45647887 779.9296875 1827.50390625 C789.50861889 1819.69208052 799.05229952 1811.84027163 808.46826172 1803.83251953 C812.66328182 1800.26971596 816.91914278 1796.78674425 821.1875 1793.3125 C824.31799666 1790.73853608 827.41172461 1788.12430914 830.5 1785.5 C835.34959381 1781.37898366 840.25160806 1777.33008646 845.1875 1773.3125 C848.31799851 1770.73853455 851.41165634 1768.12423097 854.5 1765.5 C861.15033651 1759.85142056 867.90121006 1754.33176492 874.671875 1748.828125 C880.22044283 1744.30588185 885.70914795 1739.72116721 891.16357422 1735.08642578 C895.46111625 1731.44045068 899.81657801 1727.8702272 904.1875 1724.3125 C907.31799666 1721.73853608 910.41172461 1719.12430914 913.5 1716.5 C918.34959381 1712.37898366 923.25160806 1708.33008646 928.1875 1704.3125 C931.31799851 1701.73853455 934.41165634 1699.12423097 937.5 1696.5 C944.15033651 1690.85142056 950.90121006 1685.33176492 957.671875 1679.828125 C963.22044283 1675.30588185 968.70914795 1670.72116721 974.16357422 1666.08642578 C978.46111625 1662.44045068 982.81657801 1658.8702272 987.1875 1655.3125 C990.31799666 1652.73853608 993.41172461 1650.12430914 996.5 1647.5 C1001.34959381 1643.37898366 1006.25160806 1639.33008646 1011.1875 1635.3125 C1014.31799851 1632.73853455 1017.41165634 1630.12423097 1020.5 1627.5 C1027.15033651 1621.85142056 1033.90121006 1616.33176492 1040.671875 1610.828125 C1046.22044283 1606.30588185 1051.70914795 1601.72116721 1057.16357422 1597.08642578 C1061.46111625 1593.44045068 1065.81657801 1589.8702272 1070.1875 1586.3125 C1073.31799666 1583.73853608 1076.41172461 1581.12430914 1079.5 1578.5 C1084.34959381 1574.37898366 1089.25160806 1570.33008646 1094.1875 1566.3125 C1097.31799912 1563.73853406 1100.4116341 1561.12420534 1103.5 1558.5 C1108.2691121 1554.44987401 1113.07912432 1550.45647887 1117.9296875 1546.50390625 C1127.50861889 1538.69208052 1137.05229952 1530.84027163 1146.46826172 1522.83251953 C1150.66328182 1519.26971596 1154.91914278 1515.78674425 1159.1875 1512.3125 C1162.31799666 1509.73853608 1165.41172461 1507.12430914 1168.5 1504.5 C1173.34959381 1500.37898366 1178.25160806 1496.33008646 1183.1875 1492.3125 C1186.31799851 1489.73853455 1189.41165634 1487.12423097 1192.5 1484.5 C1199.15033651 1478.85142056 1205.90121006 1473.33176492 1212.671875 1467.828125 C1218.22044283 1463.30588185 1223.70914795 1458.72116721 1229.16357422 1454.08642578 C1233.46111625 1450.44045068 1237.81657801 1446.8702272 1242.1875 1443.3125 C1245.8809391 1440.2756723 1249.52298486 1437.18039045 1253.16625977 1434.08374023 C1256.55954109 1431.2045468 1259.98267786 1428.36795763 1263.4375 1425.5625 C1265.29304858 1424.04335303 1267.14715031 1422.52243754 1269 1421 C1269.50547363 1420.58766113 1270.01094727 1420.17532227 1270.53173828 1419.75048828 C1284.45450711 1408.33901068 1297.98566133 1395.74291126 1309.05078125 1381.50390625 C1311.19384343 1378.75099471 1313.46745535 1376.13817163 1315.75 1373.5 C1327.41321309 1359.48970069 1336.95010223 1343.78233895 1346 1328 C1346.4017041 1327.30261719 1346.8034082 1326.60523438 1347.21728516 1325.88671875 C1368.19357908 1289.06425136 1380.1469728 1246.92843389 1385 1205 C1385.08298143 1204.35328278 1385.16596286 1203.70656555 1385.25145888 1203.04025084 C1386.39436693 1192.74673865 1386.14519512 1182.38908055 1386.14044189 1172.04795837 C1386.14302799 1169.79660366 1386.14604183 1167.54524941 1386.1494453 1165.29389578 C1386.15749012 1159.12087985 1386.15930347 1152.94787557 1386.16004276 1146.77485502 C1386.16170711 1140.79610972 1386.16802832 1134.81736975 1386.17412117 1128.83862772 C1386.19014891 1112.82769906 1386.1960813 1096.81677138 1386.20086992 1080.80583613 C1386.20320965 1073.22258709 1386.20681277 1065.6393388 1386.2105653 1058.05609035 C1386.2233995 1032.06829065 1386.23411757 1006.08049136 1386.2375679 980.09268856 C1386.23778953 978.46256329 1386.23801131 976.83243801 1386.23823325 975.20231274 C1386.23845389 973.56837289 1386.23867437 971.93443303 1386.2388947 970.30049318 C1386.23933724 967.02283855 1386.23978436 963.74518392 1386.24023438 960.4675293 C1386.24039846 959.24853583 1386.24039846 959.24853583 1386.24056586 958.00491623 C1386.24419283 931.68115976 1386.26009994 905.35743088 1386.28342474 879.03368497 C1386.30807264 851.16545067 1386.32174309 823.29723212 1386.32293582 795.42898661 C1386.32310726 792.36406584 1386.32332268 789.29914508 1386.32357025 786.23422432 C1386.32362602 785.47962236 1386.32368179 784.7250204 1386.32373925 783.94755171 C1386.32488554 771.85150019 1386.33587165 759.7554772 1386.35045731 747.65943528 C1386.36489071 735.47806188 1386.36802099 723.29672467 1386.36001733 711.11534505 C1386.35597905 704.52787877 1386.35694972 697.94048734 1386.37107468 691.35302734 C1386.38392502 685.30425166 1386.38251969 679.25564143 1386.37048396 673.20686562 C1386.36854603 671.03648887 1386.37151546 668.86609994 1386.38032833 666.69574022 C1386.45866097 646.07322396 1384.65588646 625.54956169 1380.25 605.375 C1379.99468506 604.1782666 1379.73937012 602.9815332 1379.47631836 601.74853516 C1368.54162919 551.88688096 1346.49870058 504.46751392 1314 465 C1313.23888916 464.0733252 1313.23888916 464.0733252 1312.46240234 463.12792969 C1306.62122929 456.06463311 1300.48885766 449.27553878 1294.25 442.5625 C1293.64808838 441.91200684 1293.04617676 441.26151367 1292.42602539 440.59130859 C1288.19257609 436.08635817 1283.69040675 432.02115507 1279 428 C1277.39231627 426.54554483 1275.78760285 425.08779105 1274.1875 423.625 C1269.87441296 419.73270194 1265.43268288 416.03788431 1260.91796875 412.3828125 C1257.74582593 409.79244152 1254.61956706 407.15317133 1251.5 404.5 C1246.64702904 400.37572261 1241.7418645 396.32333986 1236.80078125 392.3046875 C1233.73224213 389.77966925 1230.70960188 387.20515231 1227.6875 384.625 C1223.25148397 380.84207508 1218.73399357 377.19467263 1214.125 373.625 C1208.37972845 369.16948329 1202.86904559 364.48856595 1197.39941406 359.70019531 C1192.92239615 355.78368043 1188.36457063 351.98672933 1183.7421875 348.2421875 C1180.62999637 345.69746142 1177.56280258 343.10374084 1174.5 340.5 C1168.72470244 335.59439431 1162.88007503 330.77971011 1157 326 C1150.55467282 320.76081592 1144.16577088 315.46460425 1137.83642578 310.08642578 C1133.53531031 306.43741903 1129.17671694 302.86369742 1124.80078125 299.3046875 C1121.73224213 296.77966925 1118.70960188 294.20515231 1115.6875 291.625 C1111.25148397 287.84207508 1106.73399357 284.19467263 1102.125 280.625 C1097.05098314 276.69004815 1092.14722568 272.60032708 1087.3125 268.375 C1071.86399603 254.88165429 1056.26948606 242.44021085 1038 233 C1037.27329102 232.62101562 1036.54658203 232.24203125 1035.79785156 231.8515625 C1012.92163463 220.06234911 986.74013425 211.95854034 960.828125 211.796875 C960.07205963 211.78986069 959.31599426 211.78284637 958.53701782 211.77561951 C956.10795065 211.7582021 953.67912734 211.75176644 951.25 211.75 C950.41986389 211.74932526 949.58972778 211.74865051 948.73443604 211.74795532 C936.25678069 211.76407944 924.21041237 212.21406266 912 215 C911.2373584 215.16628906 910.4747168 215.33257813 909.68896484 215.50390625 C877.01556038 222.79014966 848.35451019 238.38935754 823 260 C821.94304921 260.894934 820.88574042 261.7894453 819.828125 262.68359375 C818.16255447 264.09245024 816.49762336 265.50201875 814.83496094 266.91430664 C810.53847602 270.56071581 806.18300822 274.13010959 801.8125 277.6875 C798.68200334 280.26146392 795.58827539 282.87569086 792.5 285.5 C787.65040619 289.62101634 782.74839194 293.66991354 777.8125 297.6875 C774.68200334 300.26146392 771.58827539 302.87569086 768.5 305.5 C763.65179875 309.61983299 758.75154155 313.66795964 753.81640625 317.68359375 C750.66214808 320.27787266 747.5479702 322.91606265 744.4375 325.5625 C739.88715684 329.43241802 735.27167165 333.19959897 730.58984375 336.91015625 C726.96869031 339.83220315 723.43045431 342.84821486 719.88671875 345.86328125 C716.45428391 348.78004513 712.99407185 351.65693426 709.5 354.5 C705.46016548 357.7882374 701.46916723 361.12731461 697.5 364.5 C690.84966349 370.14857944 684.09878994 375.66823508 677.328125 381.171875 C671.77955717 385.69411815 666.29085205 390.27883279 660.83642578 394.91357422 C656.53531031 398.56258097 652.17671694 402.13630258 647.80078125 405.6953125 C644.73224213 408.22033075 641.70960188 410.79484769 638.6875 413.375 C634.25148397 417.15792492 629.73399357 420.80532737 625.125 424.375 C619.37972845 428.83051671 613.86904559 433.51143405 608.39941406 438.29980469 C603.92239615 442.21631957 599.36457063 446.01327067 594.7421875 449.7578125 C591.62999637 452.30253858 588.56280258 454.89625916 585.5 457.5 C578.8498107 463.14874903 572.09878551 468.66823868 565.328125 474.171875 C559.77955717 478.69411815 554.29085205 483.27883279 548.83642578 487.91357422 C544.53888375 491.55954932 540.18342199 495.1297728 535.8125 498.6875 C532.68200088 501.26146594 529.5883659 503.87579466 526.5 506.5 C521.7308879 510.55012599 516.92087568 514.54352113 512.0703125 518.49609375 C502.49138111 526.30791948 492.94770048 534.15972837 483.53173828 542.16748047 C479.33671818 545.73028404 475.08085722 549.21325575 470.8125 552.6875 C467.68200088 555.26146594 464.5883659 557.87579466 461.5 560.5 C456.7308879 564.55012599 451.92087568 568.54352113 447.0703125 572.49609375 C437.49138111 580.30791948 427.94770048 588.15972837 418.53173828 596.16748047 C414.33671818 599.73028404 410.08085722 603.21325575 405.8125 606.6875 C402.68200088 609.26146594 399.5883659 611.87579466 396.5 614.5 C391.7308879 618.55012599 386.92087568 622.54352113 382.0703125 626.49609375 C372.49138111 634.30791948 362.94770048 642.15972837 353.53173828 650.16748047 C349.33314325 653.73332021 345.07412002 657.21974609 340.80078125 660.6953125 C337.73224213 663.22033075 334.70960188 665.79484769 331.6875 668.375 C327.25148397 672.15792492 322.73399357 675.80532737 318.125 679.375 C312.37972845 683.83051671 306.86904559 688.51143405 301.39941406 693.29980469 C296.92239615 697.21631957 292.36457063 701.01327067 287.7421875 704.7578125 C284.62999637 707.30253858 281.56280258 709.89625916 278.5 712.5 C271.8498107 718.14874903 265.09878551 723.66823868 258.328125 729.171875 C252.77955717 733.69411815 247.29085205 738.27883279 241.83642578 742.91357422 C237.53888375 746.55954932 233.18342199 750.1297728 228.8125 753.6875 C225.68200149 756.26146545 222.58834366 758.87576903 219.5 761.5 C212.84966349 767.14857944 206.09878994 772.66823508 199.328125 778.171875 C193.77955717 782.69411815 188.29085205 787.27883279 182.83642578 791.91357422 C178.53888375 795.55954932 174.18342199 799.1297728 169.8125 802.6875 C166.68200088 805.26146594 163.5883659 807.87579466 160.5 810.5 C155.7308879 814.55012599 150.92087568 818.54352113 146.0703125 822.49609375 C136.49138111 830.30791948 126.94770048 838.15972837 117.53173828 846.16748047 C113.33671818 849.73028404 109.08085722 853.21325575 104.8125 856.6875 C101.12233316 859.72163718 97.4818089 862.81224712 93.84472656 865.90966797 C90.35766665 868.87294286 86.82073669 871.76242618 83.25 874.625 C81.49353956 876.0755457 79.7432186 877.53356725 78 879 C77.20722656 879.65871094 76.41445312 880.31742188 75.59765625 880.99609375 C65.92428387 889.74346809 59.81327779 902.8269831 58.6640625 915.7890625 C58.49194994 932.69051571 63.17417588 946.27441653 74.75 958.79296875 C77.99012817 961.97121947 81.4590647 964.79668484 85.01171875 967.6171875 C88.23011486 970.18349028 91.36829756 972.82942699 94.5 975.5 C98.46842174 978.8735372 102.46019219 982.21178434 106.5 985.5 C111.1045358 989.24787798 115.64019191 993.06983444 120.1640625 996.9140625 C123.5805954 999.81244823 127.02504838 1002.671551 130.5 1005.5 C135.1045358 1009.24787798 139.64019191 1013.06983444 144.1640625 1016.9140625 C147.5805954 1019.81244823 151.02504838 1022.671551 154.5 1025.5 C159.1045358 1029.24787798 163.64019191 1033.06983444 168.1640625 1036.9140625 C171.5805954 1039.81244823 175.02504838 1042.671551 178.5 1045.5 C183.1045358 1049.24787798 187.64019191 1053.06983444 192.1640625 1056.9140625 C195.5805954 1059.81244823 199.02504838 1062.671551 202.5 1065.5 C207.1045358 1069.24787798 211.64019191 1073.06983444 216.1640625 1076.9140625 C219.5805954 1079.81244823 223.02504838 1082.671551 226.5 1085.5 C231.1045358 1089.24787798 235.64019191 1093.06983444 240.1640625 1096.9140625 C243.5805954 1099.81244823 247.02504838 1102.671551 250.5 1105.5 C255.1045358 1109.24787798 259.64019191 1113.06983444 264.1640625 1116.9140625 C267.5805954 1119.81244823 271.02504838 1122.671551 274.5 1125.5 C279.1045358 1129.24787798 283.64019191 1133.06983444 288.1640625 1136.9140625 C291.5805954 1139.81244823 295.02504838 1142.671551 298.5 1145.5 C303.1045358 1149.24787798 307.64019191 1153.06983444 312.1640625 1156.9140625 C315.5805954 1159.81244823 319.02504838 1162.671551 322.5 1165.5 C327.1045358 1169.24787798 331.64019191 1173.06983444 336.1640625 1176.9140625 C340.46091693 1180.55926128 344.81424051 1184.13032042 349.1875 1187.68359375 C351.76428241 1189.80586037 354.30371205 1191.96396473 356.83642578 1194.13818359 C373.10321615 1208.06545906 387.95477492 1217.35520404 409.89746094 1216.19091797 C423.40958305 1214.96396958 434.89396111 1207.38260354 444.515625 1198.3125 C447.03529552 1195.96714631 449.63697312 1193.79016626 452.3125 1191.625 C456.44329779 1188.28185433 460.51691875 1184.88248669 464.5625 1181.4375 C469.11265945 1177.56737168 473.72833692 1173.80039424 478.41015625 1170.08984375 C482.03130969 1167.16779685 485.56954569 1164.15178514 489.11328125 1161.13671875 C492.54571609 1158.21995487 496.00592815 1155.34306574 499.5 1152.5 C503.53983137 1149.21176517 507.53092065 1145.87278574 511.5 1142.5 C516.34959381 1138.37898366 521.25160806 1134.33008646 526.1875 1130.3125 C529.31799666 1127.73853608 532.41172461 1125.12430914 535.5 1122.5 C540.34959381 1118.37898366 545.25160806 1114.33008646 550.1875 1110.3125 C553.31799666 1107.73853608 556.41172461 1105.12430914 559.5 1102.5 C564.34820125 1098.38016701 569.24845845 1094.33204036 574.18359375 1090.31640625 C577.33785192 1087.72212734 580.4520298 1085.08393735 583.5625 1082.4375 C588.11284316 1078.56758198 592.72832835 1074.80040103 597.41015625 1071.08984375 C601.03130969 1068.16779685 604.56954569 1065.15178514 608.11328125 1062.13671875 C611.54571609 1059.21995487 615.00592815 1056.34306574 618.5 1053.5 C622.53983137 1050.21176517 626.53092065 1046.87278574 630.5 1043.5 C635.34959381 1039.37898366 640.25160806 1035.33008646 645.1875 1031.3125 C648.31799666 1028.73853608 651.41172461 1026.12430914 654.5 1023.5 C659.34959381 1019.37898366 664.25160806 1015.33008646 669.1875 1011.3125 C672.31799666 1008.73853608 675.41172461 1006.12430914 678.5 1003.5 C683.34820125 999.38016701 688.24845845 995.33204036 693.18359375 991.31640625 C696.33785192 988.72212734 699.4520298 986.08393735 702.5625 983.4375 C706.33088939 980.23260809 710.12246028 977.07312306 714 974 C732.54697089 959.22887823 746.06251697 946.68389676 749.28125 921.828125 C749.95866145 908.6186017 744.53340398 894.96915042 736.0625 885.0625 C727.41248303 875.98946365 717.46653222 868.11977239 707.7421875 860.2421875 C704.62999565 857.69746083 701.56282516 855.10371492 698.5 852.5 C693.73099271 848.44975322 688.92087251 844.45647629 684.0703125 840.50390625 C674.49138111 832.69208052 664.94770048 824.84027163 655.53173828 816.83251953 C651.33671818 813.26971596 647.08085722 809.78674425 642.8125 806.3125 C639.11985636 803.27632634 635.47878212 800.1815003 631.8359375 797.0859375 C628.4194046 794.18755177 624.97495162 791.328449 621.5 788.5 C617.46016548 785.2117626 613.46916723 781.87268539 609.5 778.5 C603.72456399 773.59453258 597.87957008 768.78034611 592 764 C589.1651064 761.69136714 586.33251238 759.38053446 583.51171875 757.0546875 C581.98969216 755.80960821 580.4540189 754.58063789 578.89453125 753.3828125 C573.54265812 749.16065246 571.13318522 744.39955567 569 738 C568.3057951 728.24108108 568.71309156 720.75152471 575 713.0625 C578.67246138 709.11345157 582.76296685 705.77152913 586.9765625 702.41796875 C590.20390951 699.83692508 593.35555574 697.18063176 596.5 694.5 C601.26838331 690.4490334 606.07914618 686.45646106 610.9296875 682.50390625 C620.50861889 674.69208052 630.05229952 666.84027163 639.46826172 658.83251953 C643.66328182 655.26971596 647.91914278 651.78674425 652.1875 648.3125 C655.31799851 645.73853455 658.41165634 643.12423097 661.5 640.5 C668.15033651 634.85142056 674.90121006 629.33176492 681.671875 623.828125 C686.168169 620.16351544 690.63439783 616.47123371 695.04516602 612.7043457 C705.51191255 603.77545997 712.91022991 598.15444713 727.265625 598.6484375 C738.57834779 599.71344278 746.14777065 608.1723723 754.22509766 615.42675781 C756.63574082 617.56350947 759.12053577 619.5994917 761.625 621.625 C765.62738911 624.86729148 769.57595635 628.16393128 773.5 631.5 C777.46899152 634.87288602 781.4601718 638.21176774 785.5 641.5 C789.53983452 644.7882374 793.53083277 648.12731461 797.5 651.5 C803.27542544 656.40545844 809.11992099 661.22028665 815 666 C821.44532718 671.23918408 827.83422912 676.53539575 834.16357422 681.91357422 C837.58020732 684.81219839 841.02486997 687.67140579 844.5 690.5 C849.1045358 694.24787798 853.64019191 698.06983444 858.1640625 701.9140625 C861.5805954 704.81244823 865.02504838 707.671551 868.5 710.5 C872.53983452 713.7882374 876.53083277 717.12731461 880.5 720.5 C886.27542544 725.40545844 892.11992099 730.22028665 898 735 C904.44532718 740.23918408 910.83422912 745.53539575 917.16357422 750.91357422 C920.58020732 753.81219839 924.02486997 756.67140579 927.5 759.5 C933.73915696 764.58240815 939.87570376 769.78033837 946 775 C946.70769531 775.59296875 947.41539063 776.1859375 948.14453125 776.796875 C984.81903484 807.98950542 1007.85279002 854.08197126 1012 902 C1012.33897284 907.89213045 1012.34091001 913.78755761 1012.3125 919.6875 C1012.31067719 920.47680908 1012.30885437 921.26611816 1012.30697632 922.0793457 C1012.25962457 934.28406505 1011.64937722 946.0491183 1009 958 C1008.75056641 959.19471924 1008.75056641 959.19471924 1008.49609375 960.41357422 C999.38190239 1003.42749399 975.27146499 1042.41101761 940.8125 1069.7578125 C937.65291235 1072.27670599 934.57482181 1074.87900312 931.5 1077.5 C926.65111558 1081.62183632 921.74837095 1085.66993062 916.8125 1089.6875 C913.68200334 1092.26146392 910.58827539 1094.87569086 907.5 1097.5 C902.64683401 1101.62405185 897.74187035 1105.67665537 892.80078125 1109.6953125 C889.73224213 1112.22033075 886.70960188 1114.79484769 883.6875 1117.375 C879.25148397 1121.15792492 874.73399357 1124.80532737 870.125 1128.375 C864.37972845 1132.83051671 858.86904559 1137.51143405 853.39941406 1142.29980469 C848.92239615 1146.21631957 844.36457063 1150.01327067 839.7421875 1153.7578125 C836.62999852 1156.30253683 833.56273503 1158.89618225 830.5 1161.5 C825.65051278 1165.62113948 820.74838877 1169.66991612 815.8125 1173.6875 C812.68200149 1176.26146545 809.58834366 1178.87576903 806.5 1181.5 C799.84966349 1187.14857944 793.09878994 1192.66823508 786.328125 1198.171875 C780.77955717 1202.69411815 775.29085205 1207.27883279 769.83642578 1211.91357422 C765.53888375 1215.55954932 761.18342199 1219.1297728 756.8125 1222.6875 C753.68200334 1225.26146392 750.58827539 1227.87569086 747.5 1230.5 C742.64683401 1234.62405185 737.74187035 1238.67665537 732.80078125 1242.6953125 C729.73224213 1245.22033075 726.70960188 1247.79484769 723.6875 1250.375 C719.25148397 1254.15792492 714.73399357 1257.80532737 710.125 1261.375 C704.37972845 1265.83051671 698.86904559 1270.51143405 693.39941406 1275.29980469 C688.92239615 1279.21631957 684.36457063 1283.01327067 679.7421875 1286.7578125 C676.62999852 1289.30253683 673.56273503 1291.89618225 670.5 1294.5 C665.65051278 1298.62113948 660.74838877 1302.66991612 655.8125 1306.6875 C652.68200149 1309.26146545 649.58834366 1311.87576903 646.5 1314.5 C639.84966349 1320.14857944 633.09878994 1325.66823508 626.328125 1331.171875 C620.77955717 1335.69411815 615.29085205 1340.27883279 609.83642578 1344.91357422 C605.53888375 1348.55954932 601.18342199 1352.1297728 596.8125 1355.6875 C593.68200334 1358.26146392 590.58827539 1360.87569086 587.5 1363.5 C582.65040619 1367.62101634 577.74839194 1371.66991354 572.8125 1375.6875 C569.68200149 1378.26146545 566.58834366 1380.87576903 563.5 1383.5 C556.84966349 1389.14857944 550.09878994 1394.66823508 543.328125 1400.171875 C542.43609375 1400.89890625 541.5440625 1401.6259375 540.625 1402.375 C539.71234375 1403.11878906 538.7996875 1403.86257813 537.859375 1404.62890625 C535.3642099 1406.69798442 532.91248898 1408.80911941 530.46777344 1410.93725586 C498.51738841 1438.52409198 456.61777861 1457.93584639 413.828125 1458.203125 C412.69429886 1458.21371445 412.69429886 1458.21371445 411.53756714 1458.22451782 C380.04158221 1458.45181052 380.04158221 1458.45181052 365 1455 C364.10249023 1454.80132324 363.20498047 1454.60264648 362.28027344 1454.39794922 C331.18210214 1447.36371359 303.23223504 1433.74583085 279 1413 C277.94070136 1412.10215952 276.88077918 1411.20505432 275.8203125 1410.30859375 C274.15745652 1408.90256374 272.49517709 1407.49590357 270.83544922 1406.08618164 C267.41963711 1403.18704274 263.97489859 1400.32840583 260.5 1397.5 C255.8954642 1393.75212202 251.35980809 1389.93016556 246.8359375 1386.0859375 C243.4194046 1383.18755177 239.97495162 1380.328449 236.5 1377.5 C231.8954642 1373.75212202 227.35980809 1369.93016556 222.8359375 1366.0859375 C219.4194046 1363.18755177 215.97495162 1360.328449 212.5 1357.5 C207.8954642 1353.75212202 203.35980809 1349.93016556 198.8359375 1346.0859375 C195.4194046 1343.18755177 191.97495162 1340.328449 188.5 1337.5 C183.8954642 1333.75212202 179.35980809 1329.93016556 174.8359375 1326.0859375 C171.4194046 1323.18755177 167.97495162 1320.328449 164.5 1317.5 C159.8954642 1313.75212202 155.35980809 1309.93016556 150.8359375 1306.0859375 C147.4194046 1303.18755177 143.97495162 1300.328449 140.5 1297.5 C135.8954642 1293.75212202 131.35980809 1289.93016556 126.8359375 1286.0859375 C123.4194046 1283.18755177 119.97495162 1280.328449 116.5 1277.5 C111.8954642 1273.75212202 107.35980809 1269.93016556 102.8359375 1266.0859375 C99.4194046 1263.18755177 95.97495162 1260.328449 92.5 1257.5 C87.8954642 1253.75212202 83.35980809 1249.93016556 78.8359375 1246.0859375 C75.4194046 1243.18755177 71.97495162 1240.328449 68.5 1237.5 C63.8954642 1233.75212202 59.35980809 1229.93016556 54.8359375 1226.0859375 C51.4194046 1223.18755177 47.97495162 1220.328449 44.5 1217.5 C39.8954642 1213.75212202 35.35980809 1209.93016556 30.8359375 1206.0859375 C27.4194046 1203.18755177 23.97495162 1200.328449 20.5 1197.5 C15.8954642 1193.75212202 11.35980809 1189.93016556 6.8359375 1186.0859375 C3.4194046 1183.18755177 -0.02504838 1180.328449 -3.5 1177.5 C-8.1045358 1173.75212202 -12.64019191 1169.93016556 -17.1640625 1166.0859375 C-20.5805954 1163.18755177 -24.02504838 1160.328449 -27.5 1157.5 C-32.1045358 1153.75212202 -36.64019191 1149.93016556 -41.1640625 1146.0859375 C-44.5805954 1143.18755177 -48.02504838 1140.328449 -51.5 1137.5 C-56.1045358 1133.75212202 -60.64019191 1129.93016556 -65.1640625 1126.0859375 C-68.5805954 1123.18755177 -72.02504838 1120.328449 -75.5 1117.5 C-80.1045358 1113.75212202 -84.64019191 1109.93016556 -89.1640625 1106.0859375 C-92.5805954 1103.18755177 -96.02504838 1100.328449 -99.5 1097.5 C-104.1045358 1093.75212202 -108.64019191 1089.93016556 -113.1640625 1086.0859375 C-116.5805954 1083.18755177 -120.02504838 1080.328449 -123.5 1077.5 C-129.73615888 1072.41332178 -135.91032148 1067.26118832 -142 1062 C-142.51739746 1061.55398438 -143.03479492 1061.10796875 -143.56787109 1060.6484375 C-151.52791262 1053.73237729 -158.51965816 1046.31892939 -165 1038 C-165.47405273 1037.39510742 -165.94810547 1036.79021484 -166.43652344 1036.16699219 C-197.81556183 995.52306738 -209.76005098 943.67219111 -203.41259766 893.19482422 C-197.15703057 848.14493401 -174.16221781 802.69039499 -137.9453125 774.33984375 C-134.36782457 771.49778106 -130.93782607 768.50820554 -127.5 765.5 C-121.43059501 760.20889977 -115.26397961 755.06009164 -109 750 C-102.55296013 744.76296175 -96.16573164 739.46457091 -89.83642578 734.08642578 C-85.53531031 730.43741903 -81.17671694 726.86369742 -76.80078125 723.3046875 C-73.73224213 720.77966925 -70.70960188 718.20515231 -67.6875 715.625 C-63.25148397 711.84207508 -58.73399357 708.19467263 -54.125 704.625 C-48.37972845 700.16948329 -42.86904559 695.48856595 -37.39941406 690.70019531 C-32.92239615 686.78368043 -28.36457063 682.98672933 -23.7421875 679.2421875 C-20.62999637 676.69746142 -17.56280258 674.10374084 -14.5 671.5 C-7.8498107 665.85125097 -1.09878551 660.33176132 5.671875 654.828125 C11.22044283 650.30588185 16.70914795 645.72116721 22.16357422 641.08642578 C26.46468969 637.43741903 30.82328306 633.86369742 35.19921875 630.3046875 C38.26775787 627.77966925 41.29039812 625.20515231 44.3125 622.625 C48.74851603 618.84207508 53.26600643 615.19467263 57.875 611.625 C63.62027155 607.16948329 69.13095441 602.48856595 74.60058594 597.70019531 C79.07760385 593.78368043 83.63542937 589.98672933 88.2578125 586.2421875 C91.37000363 583.69746142 94.43719742 581.10374084 97.5 578.5 C104.1501893 572.85125097 110.90121449 567.33176132 117.671875 561.828125 C123.22044283 557.30588185 128.70914795 552.72116721 134.16357422 548.08642578 C138.46468969 544.43741903 142.82328306 540.86369742 147.19921875 537.3046875 C150.26775787 534.77966925 153.29039812 532.20515231 156.3125 529.625 C160.74851603 525.84207508 165.26600643 522.19467263 169.875 518.625 C175.62027155 514.16948329 181.13095441 509.48856595 186.60058594 504.70019531 C191.07760385 500.78368043 195.63542937 496.98672933 200.2578125 493.2421875 C203.3700029 490.69746201 206.43722003 488.1037668 209.5 485.5 C216.90205277 479.21165663 224.40892102 473.05930768 232 467 C230.44741026 462.91971842 227.53682347 460.62268726 224.25 457.9375 C223.67362793 457.45780762 223.09725586 456.97811523 222.50341797 456.48388672 C217.86986345 452.65116258 213.1313382 448.95727889 208.38061523 445.27172852 C203.23540038 441.25094105 198.31160254 437.00055429 193.39941406 432.70019531 C188.92239615 428.78368043 184.36457063 424.98672933 179.7421875 421.2421875 C176.62999852 418.69746317 173.56273503 416.10381775 170.5 413.5 C165.64694075 409.37582498 160.74186707 405.32334196 155.80078125 401.3046875 C152.73224213 398.77966925 149.70960188 396.20515231 146.6875 393.625 C142.25148397 389.84207508 137.73399357 386.19467263 133.125 382.625 C127.37972845 378.16948329 121.86904559 373.48856595 116.39941406 368.70019531 C111.92239615 364.78368043 107.36457063 360.98672933 102.7421875 357.2421875 C99.62999852 354.69746317 96.56273503 352.10381775 93.5 349.5 C88.64694075 345.37582498 83.74186707 341.32334196 78.80078125 337.3046875 C75.73224213 334.77966925 72.70960188 332.20515231 69.6875 329.625 C65.25148397 325.84207508 60.73399357 322.19467263 56.125 318.625 C50.37972845 314.16948329 44.86904559 309.48856595 39.39941406 304.70019531 C34.92239615 300.78368043 30.36457063 296.98672933 25.7421875 293.2421875 C22.62999852 290.69746317 19.56273503 288.10381775 16.5 285.5 C11.64694075 281.37582498 6.74186707 277.32334196 1.80078125 273.3046875 C-0.71648478 271.23329704 -3.20376081 269.13299346 -5.68237305 267.01586914 C-75.46777551 207.47304484 -171.24497724 189.692835 -264 256 Z " fill="#000000" transform="translate(1054,331)"/>
</svg>
